{"glyphs":{"0":{"ha":809,"x_min":52,"x_max":758,"o":"m 52 447 q 147 790 52 664 q 405 916 242 916 q 660 795 562 916 q 758 462 758 675 q 662 119 758 245 q 403 -7 566 -7 q 149 113 246 -7 q 52 447 52 234 m 179 460 q 204 225 179 326 q 282 67 230 125 q 408 9 334 9 q 531 66 481 9 q 606 221 582 123 q 630 450 630 319 q 605 684 630 584 q 527 842 579 784 q 401 899 475 899 q 278 843 328 899 q 203 689 227 786 q 179 460 179 591 z "},"1":{"ha":347,"x_min":22,"x_max":278,"o":"m 22 707 l 22 722 q 156 799 86 746 q 273 916 227 852 l 278 916 l 278 7 l 165 7 l 165 766 q 22 707 109 732 z "},"2":{"ha":650,"x_min":26,"x_max":608,"o":"m 26 7 l 26 12 l 98 86 q 371 414 285 280 q 456 660 456 548 q 406 803 456 750 q 275 857 356 857 q 45 707 130 857 l 29 713 q 326 916 132 916 q 512 852 439 916 q 585 677 585 789 q 485 438 585 566 q 137 100 384 311 l 128 92 l 218 92 q 607 117 431 92 q 608 115 608 117 l 576 7 l 26 7 z "},"3":{"ha":630,"x_min":26,"x_max":579,"o":"m 26 48 l 27 50 q 62 93 37 79 q 115 101 87 107 q 161 71 143 95 q 255 12 204 12 q 407 72 345 12 q 469 233 469 132 q 409 382 469 320 q 250 457 349 445 l 203 462 l 199 475 l 241 489 q 373 572 319 514 q 427 707 427 629 q 382 820 427 779 q 267 860 337 860 q 139 825 195 860 q 55 748 83 789 l 39 755 q 319 916 146 916 q 481 867 416 916 q 546 733 546 817 q 490 602 546 661 q 358 516 435 542 l 358 513 q 515 431 450 497 q 579 271 579 364 q 488 69 579 146 q 255 -7 396 -7 q 26 48 146 -7 z "},"4":{"ha":680,"x_min":14,"x_max":656,"o":"m 14 289 l 498 908 l 522 908 l 522 327 l 656 327 l 635 251 l 522 251 l 522 7 l 410 7 l 410 251 l 28 251 l 14 289 m 75 327 l 410 327 l 410 760 l 75 327 z "},"5":{"ha":621,"x_min":35,"x_max":575,"o":"m 35 48 l 39 60 q 95 107 52 101 q 161 77 137 113 q 254 12 204 12 q 411 76 349 12 q 473 238 473 139 q 388 414 473 348 q 132 480 302 480 l 90 480 l 127 902 l 559 902 q 513 839 547 863 q 437 814 479 814 l 144 814 l 124 586 l 174 586 q 353 563 275 586 q 478 498 431 539 q 551 402 526 456 q 575 283 575 348 q 484 74 575 155 q 257 -7 392 -7 q 35 48 140 -7 z "},"6":{"ha":700,"x_min":47,"x_max":661,"o":"m 47 349 q 175 707 47 551 q 507 916 302 863 l 513 898 q 262 697 349 844 q 175 345 175 551 q 227 98 175 186 q 367 9 279 9 q 490 77 446 9 q 534 259 534 144 q 487 441 534 376 q 361 507 440 507 q 235 460 293 507 l 223 475 q 408 551 302 551 q 587 477 514 551 q 661 283 661 403 q 575 73 661 153 q 359 -7 490 -7 q 133 88 219 -7 q 47 349 47 184 z "},"7":{"ha":616,"x_min":41,"x_max":608,"o":"m 49 901 l 49 902 l 608 902 l 608 897 l 280 7 l 170 7 l 554 814 l 400 814 q 140 803 252 814 q 70 829 98 798 q 49 901 41 859 z "},"8":{"ha":692,"x_min":49,"x_max":643,"o":"m 49 208 q 102 357 49 296 q 254 451 156 418 q 88 681 88 536 q 162 848 88 779 q 356 916 237 916 q 533 861 459 916 q 606 720 606 805 q 555 586 606 641 q 423 498 504 530 q 585 392 528 453 q 643 243 643 331 q 555 65 643 137 q 337 -7 468 -7 q 196 17 261 -7 q 90 91 132 41 q 49 208 49 141 m 140 212 q 200 66 140 122 q 347 9 261 9 q 491 64 433 9 q 550 199 550 119 q 501 317 550 269 q 363 401 452 364 l 303 427 q 273 441 294 431 q 173 341 206 401 q 140 212 140 281 m 181 724 q 225 609 181 654 q 355 528 270 564 l 400 509 q 487 601 456 547 q 517 718 517 655 q 470 848 517 797 q 349 899 424 899 q 226 849 271 899 q 181 724 181 799 z "},"9":{"ha":699,"x_min":37,"x_max":650,"o":"m 37 625 q 123 836 37 755 q 338 916 208 916 q 565 821 479 916 q 650 560 650 725 q 523 201 650 357 q 191 -7 395 45 l 185 11 q 436 211 349 64 q 523 564 523 358 q 471 811 523 723 q 331 899 419 899 q 208 832 252 899 q 164 650 164 764 q 211 467 164 533 q 337 401 258 401 q 463 448 405 401 l 475 433 q 293 359 396 359 q 112 432 186 359 q 37 625 37 506 z "},"\u0000":{"ha":0,"x_min":0,"x_max":0,"o":""},"\n":{"ha":0,"x_min":0,"x_max":0,"o":""},"\r":{"ha":0,"x_min":0,"x_max":0,"o":""}," ":{"ha":369,"x_min":0,"x_max":0,"o":""},"!":{"ha":233,"x_min":54,"x_max":179,"o":"m 72 24 q 54 67 54 42 q 72 109 54 92 l 74 111 q 116 129 91 129 q 159 111 141 129 l 161 109 q 179 67 179 92 q 161 24 178 42 l 158 22 q 117 4 141 4 q 75 22 92 4 l 72 24 m 57 836 q 73 881 55 861 q 117 901 90 901 q 160 881 143 901 q 176 836 178 862 l 126 263 l 106 263 l 57 836 z "},"#":{"ha":671,"x_min":32,"x_max":637,"o":"m 32 280 l 32 317 l 164 317 l 201 590 l 80 590 l 80 627 l 208 627 l 245 908 l 285 908 l 247 627 l 471 627 l 509 908 l 549 908 l 511 627 l 637 627 l 637 590 l 505 590 l 468 317 l 590 317 l 590 280 l 463 280 l 424 -1 l 385 -1 l 422 280 l 198 280 l 160 -1 l 121 -1 l 159 280 l 32 280 m 204 317 l 429 317 l 466 590 l 241 590 l 204 317 z "},"$":{"ha":672,"x_min":40,"x_max":629,"o":"m 40 68 l 41 70 q 81 119 52 103 q 143 127 111 135 q 194 91 175 120 q 283 15 238 22 l 319 410 l 283 427 q 238 448 255 439 q 195 471 222 456 q 151 500 168 487 q 114 533 134 513 q 83 573 94 553 q 64 622 72 594 q 56 680 56 649 q 135 849 56 782 q 340 916 213 916 q 366 914 357 916 l 376 1025 l 400 1025 l 391 913 q 589 850 502 901 l 589 850 q 558 807 582 821 q 506 798 534 793 q 463 827 479 803 q 388 890 426 882 l 355 531 l 398 511 q 456 484 434 495 q 508 454 477 473 q 557 417 539 435 q 594 373 576 398 q 620 316 612 348 q 629 247 629 284 q 543 61 629 130 q 326 -8 457 -8 l 306 -8 l 296 -118 l 271 -118 l 281 -6 q 146 20 212 -1 q 40 68 80 41 m 149 734 q 160 677 149 704 q 186 633 171 651 q 229 597 202 615 q 277 568 256 578 q 332 542 298 557 l 363 893 q 330 896 342 896 q 198 849 248 896 q 149 734 149 802 m 308 12 q 332 12 312 12 q 480 62 422 12 q 538 191 538 113 q 530 243 538 218 q 506 288 522 268 q 474 324 490 309 q 432 354 458 339 q 390 378 407 369 q 345 399 372 387 l 342 401 l 308 12 z "},"%":{"ha":941,"x_min":33,"x_max":905,"o":"m 33 687 q 90 848 33 787 q 237 908 146 908 q 382 850 326 908 q 439 694 439 791 q 383 534 439 594 q 236 473 327 473 q 90 531 146 473 q 33 687 33 589 m 109 693 q 144 543 109 598 q 239 488 178 488 q 330 542 297 488 q 363 688 363 595 q 329 838 363 783 q 235 893 294 893 q 142 840 175 893 q 109 693 109 786 m 186 6 l 726 901 l 755 901 l 214 6 l 186 6 m 501 213 q 557 374 501 313 q 704 434 613 434 q 849 376 793 434 q 905 220 905 318 q 849 59 905 119 q 702 -1 793 -1 q 557 57 614 -1 q 501 213 501 116 m 576 219 q 610 69 576 124 q 704 14 644 14 q 797 67 764 14 q 829 214 829 121 q 796 364 829 309 q 702 419 762 419 q 610 365 643 419 q 576 219 576 311 z "},"&":{"ha":890,"x_min":37,"x_max":863,"o":"m 37 197 q 94 357 37 285 q 117 381 104 369 q 142 404 130 394 q 176 428 154 413 q 211 451 198 443 q 252 477 223 459 q 295 505 281 496 q 193 631 229 569 q 156 741 156 693 q 214 874 156 823 q 348 926 273 926 q 467 882 414 926 q 519 771 519 840 q 392 569 519 677 q 655 245 558 433 q 750 298 701 298 q 830 256 797 298 q 863 154 863 214 q 859 116 863 134 l 859 115 q 859 113 859 114 q 858 111 859 113 q 857 109 857 109 q 834 52 850 80 q 796 9 817 24 q 749 -10 773 -7 q 696 1 724 -13 q 643 49 667 16 q 640 53 642 50 q 636 57 637 56 q 587 136 614 88 q 278 -20 426 -20 q 107 42 177 -20 q 37 197 37 104 m 153 258 q 210 109 153 169 q 344 48 268 48 q 578 155 471 48 q 467 330 514 271 q 310 492 420 390 q 195 390 237 445 q 153 258 153 336 m 239 781 q 277 687 239 740 q 380 582 315 634 q 459 760 459 651 q 423 852 459 812 q 339 891 387 891 q 267 858 294 891 q 239 781 239 825 m 665 229 l 665 228 q 745 96 712 138 q 773 70 760 79 q 807 60 795 56 q 830 85 819 64 q 846 154 846 117 q 818 243 846 206 q 750 280 789 280 q 665 229 707 280 z "},"(":{"ha":271,"x_min":57,"x_max":283,"o":"m 57 380 q 106 701 57 550 q 250 972 155 852 l 254 977 l 283 958 l 278 951 q 126 387 126 751 q 278 -182 126 17 l 283 -189 l 254 -208 l 250 -202 q 57 380 57 43 z "},")":{"ha":271,"x_min":-12,"x_max":213,"o":"m -12 -189 l -8 -182 q 144 382 144 18 q -8 951 144 751 l -12 958 l 16 977 l 20 972 q 213 389 213 726 q 20 -202 213 43 l 16 -208 l -12 -189 z "},"*":{"ha":503,"x_min":36,"x_max":466,"o":"m 43 554 q 39 559 43 554 q 40 578 36 565 q 56 595 44 591 l 181 648 q 199 674 199 655 q 181 701 199 694 l 56 754 q 40 772 44 759 q 43 795 36 785 q 62 809 50 806 q 85 804 75 811 l 193 722 q 224 720 208 711 q 239 749 241 730 l 222 883 q 229 906 220 896 q 251 916 238 916 l 252 916 q 273 906 264 916 q 280 883 281 896 l 263 749 q 277 720 260 730 q 309 722 294 711 l 416 804 q 439 809 427 811 q 459 795 452 806 q 462 772 466 785 q 446 754 458 759 l 321 701 q 304 674 304 694 q 321 648 304 655 l 446 595 q 462 578 458 591 q 459 554 466 565 q 439 541 452 543 q 416 546 427 538 l 309 627 q 277 629 294 639 q 263 600 260 619 l 280 467 q 273 444 281 454 q 252 434 264 434 l 251 434 q 229 444 238 434 q 222 467 220 454 l 239 600 q 224 629 241 619 q 193 627 208 639 l 85 546 q 62 541 75 538 q 43 554 50 543 z "},"+":{"ha":558,"x_min":21,"x_max":537,"o":"m 21 434 l 21 473 l 258 473 l 258 719 l 300 719 l 300 473 l 537 473 l 537 434 l 300 434 l 300 188 l 258 188 l 258 434 l 21 434 z "},",":{"ha":197,"x_min":18,"x_max":172,"o":"m 18 -161 q 90 -50 90 -117 q 43 44 90 1 q 26 80 28 59 q 37 119 24 102 l 37 119 q 74 139 52 137 q 114 127 96 141 q 172 14 172 83 q 130 -90 172 -41 q 24 -170 87 -139 l 18 -161 z "},"-":{"ha":312,"x_min":17,"x_max":296,"o":"m 17 323 l 17 378 l 296 378 l 296 323 l 17 323 z "},".":{"ha":170,"x_min":23,"x_max":147,"o":"m 42 23 q 23 66 24 41 q 41 111 23 92 q 85 128 59 128 q 129 111 111 128 q 147 66 147 92 q 128 23 146 41 q 85 5 111 5 q 42 23 60 5 z "},"/":{"ha":382,"x_min":-14,"x_max":396,"o":"m -14 -80 l 350 975 l 396 975 l 33 -80 l -14 -80 z "},":":{"ha":193,"x_min":35,"x_max":158,"o":"m 54 23 q 35 66 35 41 q 53 110 35 92 q 96 128 71 127 q 140 110 122 128 q 157 67 157 92 q 140 24 157 41 q 97 6 122 6 q 54 23 71 5 m 53 506 q 44 515 53 506 q 35 549 35 524 q 53 593 35 575 q 96 611 71 610 q 140 593 122 611 l 140 592 q 158 549 158 574 q 140 507 158 524 l 140 506 q 96 488 122 488 q 53 506 71 488 z "},";":{"ha":215,"x_min":29,"x_max":182,"o":"m 29 -161 q 100 -50 100 -117 q 53 44 100 0 q 35 80 37 59 q 47 119 33 102 l 47 119 q 84 139 62 137 q 123 128 106 142 q 182 14 182 83 q 140 -90 182 -41 q 35 -170 98 -139 l 29 -161 m 51 511 q 35 549 35 526 q 51 588 35 572 l 60 598 q 99 614 76 614 q 138 598 122 614 l 148 588 q 163 549 163 572 q 148 511 163 526 l 138 500 q 99 485 122 485 q 60 500 76 485 l 51 511 z "},"<":{"ha":570,"x_min":24,"x_max":543,"o":"m 24 437 l 24 469 l 28 471 l 523 707 l 543 671 l 84 454 l 543 235 l 523 201 l 24 437 z "},"=":{"ha":555,"x_min":20,"x_max":536,"o":"m 20 345 l 20 385 l 536 385 l 536 345 l 20 345 m 20 522 l 20 562 l 536 562 l 536 522 l 20 522 z "},">":{"ha":570,"x_min":28,"x_max":547,"o":"m 28 235 l 486 454 l 28 671 l 47 707 l 547 469 l 547 437 l 543 436 l 47 201 l 28 235 z "},"?":{"ha":604,"x_min":47,"x_max":572,"o":"m 47 772 q 328 916 159 916 q 503 861 435 916 q 572 716 572 806 q 555 638 572 675 q 511 572 538 601 q 451 517 484 544 q 386 467 418 490 q 326 423 353 444 q 281 378 298 401 q 264 333 264 355 q 282 294 264 307 q 330 280 300 280 q 363 284 345 280 l 367 267 q 328 263 352 263 q 254 283 283 263 q 225 343 225 304 q 248 408 225 375 q 301 472 270 441 q 365 536 333 503 q 419 614 397 570 q 441 705 441 658 q 395 821 441 777 q 269 865 349 865 q 62 762 152 865 l 47 772 m 272 23 q 254 66 254 41 q 271 110 254 92 q 315 128 289 127 q 358 110 340 128 q 376 67 376 92 q 358 24 376 41 q 315 6 340 6 q 272 23 290 5 z "},"@":{"ha":1083,"x_min":47,"x_max":1040,"o":"m 47 385 q 89 593 47 494 q 201 762 130 692 q 371 874 272 833 q 579 916 469 916 q 815 860 709 916 q 980 707 921 804 q 1040 492 1040 610 q 1009 334 1040 406 q 920 219 978 262 q 787 176 861 176 q 661 260 673 176 q 485 163 580 163 q 368 210 415 163 q 320 345 320 257 q 355 497 320 426 q 455 613 390 568 q 602 659 521 659 q 743 608 692 659 l 800 654 l 808 654 l 746 359 q 736 278 736 309 q 805 199 736 199 q 940 284 882 199 q 998 490 998 370 q 966 650 998 575 q 878 779 934 725 q 743 864 822 833 q 574 896 664 896 q 386 857 475 896 q 234 751 298 819 q 133 590 170 684 q 96 391 96 496 q 131 198 96 288 q 228 45 166 109 q 376 -55 289 -18 q 563 -91 463 -91 q 865 6 736 -91 l 878 -8 q 558 -111 742 -111 q 297 -48 414 -111 q 114 129 181 15 q 47 385 47 242 m 406 354 q 437 237 406 275 q 517 199 469 199 q 658 288 596 199 q 667 361 658 323 l 711 572 q 665 621 694 604 q 604 639 637 639 q 502 598 548 639 q 431 492 456 557 q 406 354 406 427 z "},"A":{"ha":751,"x_min":-1,"x_max":751,"o":"m -1 1 l 160 391 l 374 913 l 379 913 l 751 -1 l 615 -1 l 497 292 l 148 292 l 28 1 l -1 1 m 157 315 l 488 315 l 323 725 l 184 382 l 157 315 z "},"B":{"ha":760,"x_min":69,"x_max":729,"o":"m 69 -1 l 69 893 l 366 893 q 596 838 517 893 q 675 684 675 783 q 613 545 675 600 q 459 472 551 490 l 459 469 q 653 403 577 462 q 729 245 729 344 q 632 64 729 130 q 358 -1 534 -1 l 69 -1 m 195 27 q 321 18 232 18 q 591 227 591 18 q 533 389 591 328 q 374 450 475 450 l 195 450 l 195 27 m 195 469 l 353 469 q 492 526 441 469 q 543 671 543 583 q 490 817 543 760 q 335 873 437 873 l 195 873 l 195 469 z "},"C":{"ha":850,"x_min":33,"x_max":836,"o":"m 33 425 q 68 619 33 530 q 163 767 102 707 q 308 861 224 827 q 488 895 391 895 q 680 854 591 895 q 823 751 768 814 q 732 711 785 711 q 714 712 724 711 q 618 775 650 720 q 558 849 591 823 q 481 875 526 875 q 318 820 389 875 q 209 670 247 765 q 171 456 171 575 q 268 140 171 256 q 517 24 366 24 q 684 65 604 24 q 821 193 764 106 l 836 184 q 678 27 772 83 q 462 -29 584 -29 q 291 3 370 -29 q 155 94 212 36 q 66 238 98 153 q 33 425 33 323 z "},"D":{"ha":890,"x_min":69,"x_max":857,"o":"m 69 -1 l 69 893 l 382 893 q 576 864 489 893 q 726 781 664 836 q 823 643 789 726 q 857 456 857 560 q 724 120 857 241 q 362 -1 591 -1 l 69 -1 m 195 30 q 382 18 244 18 q 631 131 543 18 q 720 450 720 243 q 625 757 720 640 q 372 873 530 873 l 195 873 l 195 30 z "},"E":{"ha":598,"x_min":69,"x_max":570,"o":"m 69 -1 l 69 893 l 569 893 l 570 736 l 543 736 q 506 799 530 773 q 456 839 481 825 q 395 860 431 852 q 331 870 359 868 q 266 871 304 871 l 195 871 l 195 475 l 429 475 l 429 454 l 195 454 l 195 21 l 266 21 q 332 23 304 21 q 395 32 359 24 q 456 54 431 40 q 506 93 481 67 q 543 155 530 119 l 570 156 l 569 -1 l 69 -1 z "},"F":{"ha":576,"x_min":69,"x_max":570,"o":"m 69 -1 l 69 893 l 569 893 l 570 736 l 543 736 q 506 799 530 773 q 456 839 481 825 q 395 860 431 852 q 331 870 359 868 q 266 871 304 871 l 195 871 l 195 461 l 431 461 l 431 439 l 195 439 l 195 -1 l 69 -1 z "},"G":{"ha":900,"x_min":33,"x_max":860,"o":"m 33 440 q 95 687 33 580 q 263 851 157 794 q 504 908 370 908 q 695 868 608 908 q 840 764 783 829 l 839 763 q 747 724 799 724 q 722 726 734 724 q 622 798 655 737 q 568 865 598 841 q 493 888 538 888 q 258 768 346 888 q 171 448 171 648 q 214 218 171 319 q 335 62 256 118 q 517 6 414 6 q 643 26 583 6 q 745 80 703 47 l 745 382 l 539 382 l 526 404 l 860 404 l 860 96 q 511 -16 707 -16 q 163 106 294 -16 q 33 440 33 227 z "},"H":{"ha":827,"x_min":69,"x_max":758,"o":"m 69 -1 l 69 893 l 195 893 l 195 475 l 632 475 l 632 893 l 758 893 l 758 -1 l 632 -1 l 632 454 l 195 454 l 195 -1 l 69 -1 z "},"I":{"ha":265,"x_min":69,"x_max":195,"o":"m 69 -1 l 69 893 l 195 893 l 195 -1 l 69 -1 z "},"J":{"ha":268,"x_min":-107,"x_max":201,"o":"m -107 -171 q -37 -119 -66 -146 q 13 -61 -7 -93 q 46 2 33 -30 q 65 78 58 34 q 74 165 71 122 q 76 269 76 208 l 76 893 l 201 893 l 201 279 q 194 163 201 216 q 174 71 186 111 q 140 -3 162 31 q 97 -61 119 -37 q 40 -108 75 -85 q -24 -148 6 -132 q -98 -185 -54 -164 l -107 -171 z "},"K":{"ha":739,"x_min":69,"x_max":742,"o":"m 69 -1 l 69 893 l 195 893 l 195 -1 l 69 -1 m 234 457 l 410 624 q 523 730 459 671 q 626 827 586 790 q 696 894 666 865 l 742 894 l 742 892 q 426 606 635 804 l 337 521 l 707 -1 l 541 -1 l 234 457 z "},"L":{"ha":574,"x_min":69,"x_max":570,"o":"m 69 -1 l 69 893 l 195 893 l 195 21 l 266 21 q 332 23 304 21 q 395 32 359 24 q 456 54 431 40 q 506 93 481 67 q 543 155 530 119 l 570 156 l 569 -1 l 69 -1 z "},"M":{"ha":1018,"x_min":39,"x_max":978,"o":"m 39 1 l 118 832 l 91 890 l 91 893 l 226 893 l 522 236 l 781 893 l 895 893 l 978 -1 l 852 -1 l 777 816 l 475 56 l 471 56 l 138 785 l 62 1 l 39 1 z "},"N":{"ha":762,"x_min":28,"x_max":692,"o":"m 28 890 l 28 893 l 176 893 l 668 200 l 668 503 l 668 894 l 692 894 l 692 -16 l 682 -16 l 113 772 l 113 1 l 88 1 l 88 806 l 28 890 z "},"O":{"ha":996,"x_min":33,"x_max":963,"o":"m 33 437 q 70 632 33 543 q 170 781 106 721 q 320 874 233 841 q 507 908 407 908 q 738 854 635 908 q 902 696 841 801 q 963 454 963 592 q 926 260 963 349 q 826 111 890 172 q 676 18 763 51 q 490 -16 590 -16 q 311 16 395 -16 q 166 104 228 47 q 69 248 104 161 q 33 437 33 334 m 171 451 q 263 127 171 251 q 504 4 356 4 q 738 124 650 4 q 826 441 826 243 q 734 765 826 642 q 496 888 642 888 q 260 769 349 888 q 171 451 171 649 z "},"P":{"ha":667,"x_min":69,"x_max":648,"o":"m 69 -1 l 69 893 l 302 893 q 561 830 473 893 q 648 648 648 767 q 555 447 648 522 q 302 372 461 372 q 195 380 254 372 l 195 -1 l 69 -1 m 195 401 q 281 392 236 392 q 456 455 396 392 q 515 633 515 518 q 457 808 515 743 q 283 873 399 873 l 195 873 l 195 401 z "},"Q":{"ha":997,"x_min":33,"x_max":1160,"o":"m 33 437 q 70 632 33 543 q 170 781 106 721 q 320 874 233 841 q 507 908 407 908 q 738 854 635 908 q 902 696 841 801 q 963 454 963 592 q 890 190 963 302 q 694 24 818 78 q 787 -144 725 -86 q 901 -191 839 -191 q 928 -189 915 -191 q 1062 -75 1019 -174 q 1109 -42 1075 -44 q 1113 -42 1111 -42 q 1160 -70 1144 -42 q 939 -205 1086 -182 q 879 -210 908 -210 q 723 -170 795 -210 q 581 -9 626 -117 q 490 -16 539 -16 q 311 16 395 -16 q 166 104 228 47 q 69 248 104 161 q 33 437 33 334 m 171 451 q 263 127 171 251 q 504 4 356 4 q 738 124 650 4 q 826 441 826 243 q 734 765 826 642 q 496 888 642 888 q 260 769 349 888 q 171 451 171 649 z "},"R":{"ha":737,"x_min":69,"x_max":731,"o":"m 69 -1 l 69 893 l 290 893 q 652 667 652 893 q 635 584 652 621 q 588 518 618 546 q 520 470 557 490 q 437 434 484 450 l 731 -1 l 583 -1 l 341 377 q 315 397 328 392 q 277 403 302 403 l 195 403 l 195 -1 l 69 -1 m 195 430 q 308 422 239 422 q 465 491 406 422 q 525 659 525 559 q 464 816 525 759 q 284 873 403 873 l 195 873 l 195 430 z "},"S":{"ha":637,"x_min":25,"x_max":611,"o":"m 25 50 q 69 111 35 90 q 125 127 95 127 q 142 126 134 127 q 207 86 182 119 q 322 4 269 4 q 467 53 411 4 q 523 178 523 102 q 516 225 523 203 q 500 264 510 248 q 474 298 490 281 q 442 327 457 315 q 405 351 427 338 q 366 372 382 364 q 326 391 351 379 l 264 418 q 214 442 234 431 q 164 470 193 452 q 115 507 134 488 q 76 550 95 526 q 48 606 58 575 q 39 672 39 637 q 116 841 39 774 q 321 908 194 908 q 459 888 391 908 q 572 843 528 869 l 572 842 q 517 788 555 803 q 477 779 497 780 q 442 785 460 779 q 382 835 404 798 q 308 888 351 888 q 177 843 225 888 q 128 731 128 798 q 135 683 128 705 q 157 643 142 661 q 187 610 172 624 q 227 581 202 595 q 271 556 252 566 q 320 533 290 547 l 381 505 q 429 482 411 491 q 475 457 448 473 q 518 428 502 441 q 555 394 535 414 q 585 352 574 373 q 604 302 596 330 q 611 242 611 274 q 527 56 611 128 q 311 -16 442 -16 q 155 5 237 -16 q 25 50 73 25 z "},"T":{"ha":661,"x_min":-1,"x_max":661,"o":"m -1 773 l 11 893 l 648 893 l 661 772 l 659 772 q 576 815 632 785 q 487 859 520 846 q 420 871 454 871 l 392 871 l 392 -1 l 267 -1 l 267 871 l 237 871 q 171 859 204 871 q 83 817 138 847 q 1 773 28 786 l -1 773 z "},"U":{"ha":762,"x_min":61,"x_max":701,"o":"m 61 306 l 61 893 l 186 893 l 186 309 q 249 93 186 165 q 431 21 311 21 q 612 92 547 21 q 677 302 677 163 l 677 893 l 701 893 l 701 309 q 385 -16 701 -16 q 143 67 224 -16 q 61 306 61 150 z "},"V":{"ha":741,"x_min":-1,"x_max":742,"o":"m -1 893 l 135 893 l 427 168 l 715 893 l 742 893 l 376 -21 l 371 -21 l -1 893 z "},"W":{"ha":1140,"x_min":1,"x_max":1141,"o":"m 1 893 l 135 893 l 374 195 l 619 893 l 624 893 l 864 195 l 972 509 q 1103 894 1057 747 l 1141 893 q 996 501 1097 785 l 814 -21 l 810 -21 l 569 680 l 323 -21 l 318 -21 l 1 893 z "},"X":{"ha":768,"x_min":1,"x_max":768,"o":"m 1 881 l 1 888 l 168 888 l 182 863 l 413 522 l 652 863 l 670 888 l 703 888 l 429 498 l 768 -1 l 602 -1 l 344 378 l 77 -1 l 45 -1 l 328 401 l 1 881 z "},"Y":{"ha":688,"x_min":-7,"x_max":697,"o":"m -7 893 l 137 893 l 399 427 l 464 539 l 666 894 l 697 893 q 486 528 597 728 l 411 397 l 411 -1 l 286 -1 l 286 382 l -7 893 z "},"Z":{"ha":699,"x_min":14,"x_max":683,"o":"m 14 -1 l 14 4 l 510 871 l 341 871 q 276 870 303 871 q 212 860 248 868 q 151 839 176 852 q 101 799 125 825 q 64 736 77 773 l 37 736 l 39 893 l 663 893 l 663 888 l 165 21 l 378 21 q 444 23 417 21 q 507 32 471 24 q 569 54 543 40 q 618 93 594 67 q 656 155 642 119 l 683 156 l 682 -1 l 14 -1 z "},"[":{"ha":205,"x_min":69,"x_max":305,"o":"m 69 -205 l 69 975 l 305 975 l 305 945 l 115 945 q 138 385 138 654 q 115 -176 138 115 l 305 -176 l 305 -205 l 69 -205 z "},"\\":{"ha":382,"x_min":-16,"x_max":395,"o":"m -16 975 l 31 975 l 395 -80 l 349 -80 l -16 975 z "},"]":{"ha":205,"x_min":-100,"x_max":136,"o":"m -100 -176 l 91 -176 q 67 385 67 115 q 91 945 67 654 l -100 945 l -100 975 l 136 975 l 136 -205 l -100 -205 l -100 -176 z "},"^":{"ha":590,"x_min":21,"x_max":569,"o":"m 21 444 l 288 923 l 302 923 l 569 444 l 534 424 l 295 854 l 56 424 l 21 444 z "},"_":{"ha":0,"x_min":-240,"x_max":241,"o":"m -240 -65 l 241 -65 l 241 -106 l -240 -106 l -240 -65 z "},"`":{"ha":182,"x_min":-20,"x_max":159,"o":"m -5 915 q -11 950 -20 930 q 19 970 -3 970 l 49 970 q 79 950 71 970 l 159 757 l 151 751 l -5 915 z "},"a":{"ha":659,"x_min":24,"x_max":641,"o":"m 24 138 q 104 278 24 212 q 352 410 184 344 l 459 452 q 438 581 456 535 q 393 642 420 627 q 322 656 366 656 q 237 630 271 656 q 219 593 225 621 q 194 553 214 567 q 156 542 177 541 q 149 543 153 543 q 107 564 125 545 l 87 586 q 209 647 137 618 q 342 675 280 675 q 405 670 376 675 q 465 648 434 664 q 517 606 495 631 q 552 536 538 580 q 566 435 566 492 l 566 100 q 566 95 566 98 q 566 90 566 92 q 580 66 569 66 q 610 94 591 66 l 625 116 l 641 116 q 633 94 638 108 q 608 52 627 81 q 566 9 589 23 l 566 9 l 565 9 q 526 -3 548 -3 q 524 -4 526 -3 q 521 -4 522 -4 q 516 -4 519 -4 q 512 -3 513 -3 q 468 18 482 -1 q 451 60 453 37 q 450 75 450 64 q 449 90 449 85 q 449 92 449 90 q 448 94 448 93 l 448 96 l 448 99 l 448 237 q 420 157 437 194 q 197 -11 345 -9 q 195 -11 196 -11 q 193 -12 194 -12 q 66 36 115 -12 q 24 138 24 78 m 122 176 q 162 89 122 125 q 260 54 203 54 q 427 228 374 54 q 460 433 458 325 l 357 389 q 239 335 282 357 q 168 287 195 312 q 131 238 140 262 q 122 176 122 213 z "},"b":{"ha":715,"x_min":-4,"x_max":677,"o":"m -4 946 l -4 963 l 64 977 l 142 992 l 179 999 l 179 568 q 397 671 277 671 q 598 578 518 671 q 677 341 677 486 q 652 198 677 264 q 584 86 627 132 q 483 15 541 41 q 361 -11 425 -11 q 138 75 225 -11 l 68 -1 l 64 -1 l 64 871 q 50 922 64 907 q -4 946 37 938 m 179 133 q 249 42 203 76 q 350 9 294 9 q 497 96 441 9 q 553 330 553 182 q 500 553 553 475 q 361 631 447 631 q 179 536 260 631 l 179 133 z "},"c":{"ha":631,"x_min":36,"x_max":612,"o":"m 36 315 q 129 566 36 469 q 358 663 222 663 q 605 551 516 663 q 532 522 572 522 q 501 526 517 522 q 421 599 443 542 q 364 645 404 645 q 219 562 275 645 q 163 342 163 479 q 225 115 163 197 q 387 34 287 34 q 500 64 444 34 q 597 152 557 94 l 612 144 q 338 -18 505 -18 q 121 74 207 -18 q 36 315 36 165 z "},"d":{"ha":748,"x_min":36,"x_max":726,"o":"m 36 317 q 61 460 36 394 q 130 572 87 527 q 231 644 173 618 q 353 669 289 669 q 534 602 458 669 l 534 887 q 517 926 531 913 q 467 946 503 939 l 467 963 l 534 977 l 650 999 l 650 999 l 650 111 q 652 90 650 101 q 665 66 654 66 q 695 93 676 66 l 709 116 l 726 116 q 718 95 724 108 q 693 53 713 81 q 652 10 674 24 q 651 9 651 10 q 650 9 651 9 q 612 -3 633 -3 q 609 -4 611 -3 q 606 -4 607 -4 q 602 -4 604 -4 q 597 -3 599 -3 q 553 18 568 -1 q 536 60 538 37 q 535 75 536 64 q 534 90 534 85 q 316 -12 438 -12 q 116 80 195 -12 q 36 317 36 173 m 161 329 q 214 106 161 183 q 354 28 267 28 q 534 121 452 28 l 534 525 q 466 615 511 582 q 364 649 420 649 q 217 563 273 649 q 161 329 161 476 z "},"e":{"ha":676,"x_min":33,"x_max":705,"o":"m 33 294 q 63 435 33 366 q 141 553 93 503 q 251 632 189 602 q 377 663 314 663 q 547 604 489 663 q 551 601 549 603 q 560 590 553 598 q 572 573 567 582 q 585 548 578 564 q 595 517 592 533 q 601 479 598 500 q 602 463 602 471 q 599 434 602 448 l 538 434 l 538 434 l 159 434 q 150 343 150 398 q 216 128 151 201 q 407 55 281 55 q 573 108 504 55 q 695 263 643 161 l 705 258 q 531 41 635 115 q 344 -21 443 -21 q 118 67 203 -21 q 33 294 33 156 m 163 455 l 495 455 q 499 503 499 481 q 491 559 499 536 q 452 619 477 600 l 450 621 q 429 634 440 629 l 420 637 q 381 643 403 643 q 254 598 303 643 q 163 455 204 554 m 581 455 l 582 455 l 581 455 z "},"f":{"ha":431,"x_min":14,"x_max":568,"o":"m 14 609 l 14 636 l 100 636 q 96 693 96 665 q 138 850 96 778 q 308 993 195 947 q 439 1020 376 1020 q 568 990 506 1020 l 568 989 q 555 948 568 966 q 524 922 543 930 q 484 916 506 913 q 444 934 461 919 q 341 981 388 981 q 308 975 324 981 q 205 850 228 943 q 198 783 198 819 q 225 636 198 716 l 431 636 l 414 609 l 225 609 l 225 -4 l 109 -4 l 109 609 l 14 609 z "},"g":{"ha":644,"x_min":40,"x_max":635,"o":"m 40 435 q 115 599 40 535 q 303 663 190 663 q 469 616 401 663 q 473 616 471 614 q 631 702 534 700 q 635 697 635 702 l 635 689 q 608 637 631 658 q 554 617 585 617 q 492 604 517 617 q 490 600 490 602 q 492 597 490 598 q 562 437 562 534 q 488 274 562 338 q 300 210 413 210 q 187 231 241 210 q 184 231 186 231 l 158 213 q 123 157 123 191 q 209 110 123 114 l 411 98 q 571 51 515 92 q 627 -65 627 10 q 540 -233 627 -168 q 311 -299 453 -299 q 119 -252 191 -299 q 47 -123 47 -204 l 47 -117 q 50 -90 47 -105 l 50 -87 q 80 -46 58 -60 q 107 -37 91 -39 l 109 -37 l 110 -37 l 134 -37 l 139 -37 l 144 -37 q 149 -38 147 -37 q 135 -113 135 -79 q 137 -140 135 -126 q 187 -245 147 -208 q 311 -282 227 -282 q 530 -111 530 -282 q 499 -32 530 -59 q 389 -1 468 -5 l 196 12 q 91 40 129 15 q 53 112 53 66 q 74 172 53 146 q 140 225 95 198 l 164 240 q 73 319 106 269 q 40 435 40 370 m 191 586 q 171 558 191 586 q 151 437 151 530 q 192 287 151 344 q 302 230 233 230 q 412 286 372 230 q 452 435 452 342 q 410 586 452 528 q 300 643 369 643 q 191 586 231 643 z "},"h":{"ha":724,"x_min":-4,"x_max":703,"o":"m -4 946 l -4 963 l 64 977 l 179 999 l 179 555 q 291 636 234 609 q 418 664 347 664 q 627 432 627 664 l 627 112 q 629 92 627 102 q 642 68 631 68 q 673 95 653 68 l 687 117 l 703 117 q 695 95 701 109 q 670 53 690 82 q 629 11 651 24 q 628 11 628 11 q 627 10 628 10 q 589 -3 609 -2 l 584 -3 l 574 -3 q 513 60 522 2 q 512 78 512 67 l 512 434 q 512 460 512 450 q 508 492 511 471 q 500 529 505 513 q 485 562 495 544 q 459 592 474 581 q 421 612 444 604 q 368 620 397 620 q 179 532 269 620 l 179 8 l 64 8 l 64 871 l 64 871 q 50 922 64 907 q -4 946 37 938 z "},"i":{"ha":350,"x_min":41,"x_max":309,"o":"m 41 543 q 50 564 44 551 q 75 607 56 578 q 117 649 95 635 q 158 663 138 662 l 159 663 l 161 663 l 168 663 q 177 661 172 663 q 233 589 229 652 l 233 574 l 233 111 q 234 90 233 101 q 248 66 237 66 q 277 93 258 66 l 292 116 l 309 116 q 300 95 306 108 q 276 53 295 81 q 234 10 256 24 q 194 -3 213 -3 q 191 -4 193 -3 q 189 -4 189 -4 q 184 -4 186 -4 q 180 -3 181 -3 q 119 60 127 1 q 117 77 117 66 l 117 550 q 103 592 117 592 q 81 576 94 592 q 58 543 69 562 l 41 543 m 116 849 q 134 890 116 873 q 175 907 151 907 q 217 890 199 907 q 234 849 234 873 q 217 807 234 824 q 175 789 199 789 q 134 807 151 789 q 116 849 116 825 z "},"j":{"ha":277,"x_min":-57,"x_max":214,"o":"m -57 -223 q 57 -143 16 -208 q 98 21 98 -78 l 98 551 q 83 593 97 593 q 61 577 75 593 q 39 544 50 563 l 22 544 q 41 585 28 562 q 98 650 67 631 q 138 663 117 663 l 139 663 l 140 663 l 142 663 l 148 663 q 158 663 155 663 q 213 590 209 654 q 213 585 213 588 q 214 582 214 583 l 213 574 l 213 113 l 214 24 q 214 11 214 16 q 187 -87 210 -43 q 126 -162 163 -132 q 44 -212 89 -193 q -52 -238 -1 -231 l -57 -223 m 96 850 q 114 892 96 874 q 156 909 132 909 q 197 892 180 909 q 214 850 214 875 q 197 808 214 825 q 155 791 180 791 q 114 808 132 791 q 96 850 96 826 z "},"k":{"ha":673,"x_min":-4,"x_max":659,"o":"m -4 947 l -4 965 l 64 978 l 179 1000 l 179 396 l 365 580 l 368 583 q 375 590 370 585 q 385 600 380 595 q 392 607 389 604 q 404 618 396 611 q 524 663 455 661 q 528 659 528 663 l 527 650 q 500 598 524 618 q 446 578 477 578 q 379 568 397 578 l 301 492 q 374 503 332 503 q 583 271 583 503 l 583 113 q 585 93 583 104 q 598 69 587 69 q 628 96 609 69 l 642 119 l 659 119 q 651 97 656 111 q 626 55 646 83 q 585 12 607 26 l 584 12 l 583 12 q 544 -1 566 1 q 542 -1 543 -1 q 539 -1 540 -1 q 534 -1 537 -1 q 530 -1 531 -1 q 469 62 477 4 q 468 79 468 68 l 468 273 q 468 300 468 289 q 464 332 467 311 q 456 368 461 353 q 440 401 451 382 q 415 431 430 419 q 377 450 400 442 q 324 458 353 458 q 263 445 285 458 q 201 393 241 432 l 179 371 l 179 8 l 64 8 l 64 873 q 50 924 64 908 q -4 947 37 939 z "},"l":{"ha":276,"x_min":-4,"x_max":254,"o":"m -4 946 l -4 963 l 44 972 l 144 992 l 179 999 l 179 538 l 178 541 l 178 114 q 180 93 178 104 q 193 69 182 69 q 223 96 204 69 l 237 119 l 254 119 q 246 97 252 111 q 221 55 241 84 q 180 13 202 26 q 139 -1 159 0 l 134 -1 l 125 -1 q 64 62 73 4 q 63 80 63 69 l 63 887 q 43 928 61 915 q 18 941 35 935 q -4 946 7 944 z "},"m":{"ha":1184,"x_min":21,"x_max":1165,"o":"m 21 544 q 29 566 24 552 q 54 608 35 579 q 96 650 73 637 q 96 651 96 650 q 97 651 96 651 q 136 663 114 662 q 139 664 137 663 q 142 664 141 664 q 146 664 144 664 q 151 663 149 663 q 180 654 169 661 q 212 606 205 640 l 212 605 q 214 583 214 598 l 214 557 q 320 637 267 610 q 444 664 374 664 q 635 543 591 664 q 750 634 694 604 q 881 664 806 664 q 1088 432 1088 664 l 1088 111 q 1089 104 1088 108 q 1089 98 1089 100 q 1089 94 1089 96 q 1090 90 1090 91 q 1103 66 1093 66 q 1135 94 1115 66 l 1149 116 l 1165 116 q 1157 94 1162 108 q 1132 52 1152 81 q 1090 9 1113 23 l 1090 9 l 1089 9 l 1088 9 q 1055 -3 1071 -1 l 1050 -3 q 1047 -4 1049 -3 q 1045 -4 1046 -4 q 1040 -4 1043 -4 q 1036 -3 1037 -3 l 1034 -3 q 1006 5 1016 -1 q 975 54 982 20 l 975 55 q 974 57 975 56 q 974 60 974 59 q 972 77 972 66 l 972 434 q 972 461 972 450 q 969 494 972 472 q 961 533 966 517 q 946 569 956 549 q 921 601 935 589 q 883 622 906 613 q 830 631 859 631 q 738 604 783 631 q 641 522 694 577 q 651 432 651 479 l 651 8 l 534 8 l 534 434 q 391 631 534 631 q 305 607 346 631 q 214 534 264 583 l 214 8 l 97 8 l 97 558 l 97 562 q 96 566 97 564 q 96 570 96 569 q 82 593 93 593 q 52 567 71 593 l 38 544 l 21 544 z "},"n":{"ha":748,"x_min":22,"x_max":729,"o":"m 22 544 q 31 566 25 552 q 55 608 36 579 q 97 650 75 637 q 98 651 98 650 q 98 651 98 651 q 138 663 115 662 q 140 664 138 663 q 143 664 142 664 q 148 664 145 664 q 152 663 151 663 q 182 654 170 661 q 212 606 205 640 l 212 605 l 213 604 l 213 604 q 213 602 213 603 l 214 600 q 214 591 214 597 q 215 586 214 589 q 215 583 215 583 l 215 557 q 322 637 269 611 q 444 664 374 664 q 636 543 593 664 l 642 522 q 652 432 652 479 l 652 98 q 653 94 652 97 q 653 91 653 92 q 667 67 656 67 q 698 94 678 67 l 712 117 l 729 117 q 726 109 728 114 q 717 89 724 103 q 702 61 710 74 q 681 34 694 49 q 654 11 668 20 l 653 10 l 652 9 l 652 9 q 618 -3 635 -1 l 612 -3 q 610 -3 612 -3 q 608 -3 608 -3 q 603 -3 606 -3 q 598 -3 600 -3 l 596 -3 q 568 6 578 -1 q 538 54 545 20 l 537 56 q 537 58 537 56 q 536 60 536 60 q 535 78 535 67 l 535 434 q 535 461 535 451 q 532 495 534 472 q 524 533 529 517 q 509 569 519 549 q 484 602 498 589 q 446 623 469 614 q 393 632 422 632 q 307 608 349 632 q 215 534 266 583 l 215 8 l 98 8 l 98 562 q 98 566 98 564 q 97 570 97 569 q 83 593 94 593 q 53 566 73 593 l 39 544 l 22 544 z "},"o":{"ha":730,"x_min":35,"x_max":694,"o":"m 125 70 q 80 115 125 70 q 35 315 35 161 q 130 564 35 469 q 370 660 224 660 q 604 568 513 660 q 694 322 694 476 q 600 73 694 168 q 359 -22 505 -22 q 125 70 216 -22 m 160 322 q 217 85 160 176 q 366 -5 275 -5 q 514 83 458 -5 q 569 315 569 170 q 512 552 569 462 q 363 643 454 643 q 215 555 271 643 q 160 322 160 468 z "},"p":{"ha":747,"x_min":21,"x_max":711,"o":"m 21 542 q 29 563 24 550 q 54 605 35 576 q 96 648 73 634 q 96 648 96 648 q 97 648 96 648 q 136 661 115 661 q 139 662 137 661 q 142 662 141 662 q 146 662 144 662 q 151 661 149 661 q 178 654 165 661 q 180 652 179 654 q 211 604 204 638 l 211 603 q 212 601 211 602 q 212 598 212 599 q 213 589 213 595 l 213 581 l 213 561 q 431 664 311 664 q 631 571 551 664 q 711 334 711 478 q 685 190 711 256 q 617 79 660 124 q 516 7 574 33 q 394 -18 458 -18 q 213 50 288 -18 l 213 -283 l 96 -283 l 96 559 q 96 564 96 561 q 96 568 96 567 q 82 591 93 591 q 52 564 71 591 l 37 542 l 21 542 m 213 127 q 281 35 236 69 q 382 1 326 1 q 530 88 474 1 q 585 322 585 175 q 533 546 585 468 q 395 623 481 623 q 300 600 348 623 q 213 530 253 576 l 213 127 z "},"q":{"ha":713,"x_min":36,"x_max":728,"o":"m 36 311 q 61 455 36 389 q 130 567 87 522 q 231 638 173 612 q 353 664 289 664 q 569 589 481 664 l 644 663 l 650 663 l 650 -180 l 650 -182 q 651 -186 650 -183 q 651 -189 651 -189 q 665 -213 654 -213 q 696 -186 676 -213 l 710 -163 l 728 -163 q 725 -172 726 -166 q 716 -192 723 -177 q 701 -219 709 -206 q 679 -246 692 -231 q 652 -269 666 -260 q 651 -270 651 -269 q 650 -270 651 -270 l 650 -271 l 650 -271 q 616 -283 632 -281 l 611 -283 q 609 -283 610 -283 q 606 -283 607 -283 q 601 -283 604 -283 q 597 -283 598 -283 l 595 -283 q 567 -274 577 -281 q 536 -226 543 -259 l 536 -224 q 535 -222 536 -224 q 535 -220 535 -220 q 534 -202 534 -213 l 534 84 q 316 -18 435 -18 q 116 75 195 -18 q 36 311 36 168 m 161 323 q 214 100 161 178 q 354 22 267 22 q 534 115 452 22 l 534 519 q 466 609 511 576 q 364 643 420 643 q 217 557 273 643 q 161 323 161 471 z "},"r":{"ha":471,"x_min":21,"x_max":469,"o":"m 21 531 q 29 552 24 539 q 54 594 35 566 q 96 637 73 623 l 96 637 q 138 650 116 650 q 139 651 138 650 q 141 651 140 651 q 143 651 142 651 q 145 650 144 650 q 211 589 201 648 l 211 488 q 297 607 245 565 q 411 649 348 649 q 469 642 436 649 l 464 630 q 427 583 453 600 q 368 566 400 566 l 367 566 q 343 565 354 566 q 324 562 333 564 q 309 558 315 559 q 295 552 302 557 q 284 546 288 547 q 274 537 281 544 q 266 528 268 530 q 256 516 264 526 q 247 505 249 507 q 243 501 245 503 q 240 497 241 498 q 226 476 236 492 q 219 465 220 466 q 217 459 218 463 q 214 454 215 456 l 213 452 l 213 5 l 213 -3 l 96 -3 l 96 542 q 96 557 96 553 q 82 581 93 581 q 52 553 71 581 l 37 531 l 21 531 z "},"s":{"ha":544,"x_min":31,"x_max":513,"o":"m 31 41 q 60 96 33 76 q 108 114 81 113 q 119 113 113 114 q 172 79 153 109 q 275 -1 227 -1 q 391 34 347 -1 q 435 124 435 68 q 423 174 435 152 q 386 214 412 196 q 340 241 360 231 q 282 267 320 251 l 232 288 q 196 303 207 298 q 160 321 184 309 q 123 343 136 334 q 93 369 111 353 q 65 400 75 385 q 50 438 56 416 q 43 484 43 460 q 105 613 43 563 q 271 663 168 663 q 390 648 332 663 q 484 612 448 633 q 457 560 481 579 q 413 545 437 545 q 403 545 408 545 q 353 576 372 549 q 260 646 303 646 q 159 614 196 646 q 121 534 121 582 q 132 488 121 509 q 170 450 143 468 q 211 425 197 433 q 263 402 226 418 q 275 397 271 399 l 324 376 q 359 361 347 366 q 395 343 372 355 q 432 321 418 332 q 463 295 446 311 q 490 263 480 279 q 507 223 500 246 q 513 176 513 201 q 446 36 513 90 q 262 -18 378 -18 q 136 -2 200 -18 q 31 41 72 14 z "},"t":{"ha":448,"x_min":11,"x_max":437,"o":"m 11 622 l 11 643 l 101 649 l 218 858 l 222 858 l 222 649 l 433 649 l 416 622 l 222 622 l 222 153 q 223 124 222 136 q 229 92 224 113 q 244 58 234 71 q 274 34 254 45 q 322 24 294 24 q 427 54 374 24 l 437 40 q 265 -18 351 -18 q 106 151 106 -18 l 106 622 l 11 622 z "},"u":{"ha":755,"x_min":20,"x_max":734,"o":"m 20 543 q 23 551 21 546 q 32 571 24 557 q 47 598 39 586 q 68 626 55 611 q 95 649 81 640 q 96 650 96 650 q 138 663 116 662 l 138 663 l 141 663 l 144 663 l 145 663 q 212 601 202 660 l 212 210 q 212 184 212 194 q 215 152 212 174 q 223 116 218 131 q 238 82 228 101 q 264 53 249 64 q 302 33 279 41 q 355 25 326 25 q 451 52 401 25 q 541 123 500 78 l 541 663 l 652 663 l 658 663 l 658 111 q 659 90 658 101 q 673 66 662 66 q 703 93 684 66 l 717 116 l 734 116 q 726 95 731 108 q 701 53 720 81 q 659 10 682 24 l 659 9 l 658 9 q 618 -3 641 -2 q 616 -4 618 -3 q 614 -4 614 -4 q 609 -4 612 -4 q 604 -3 606 -3 q 560 18 574 -1 q 544 60 546 37 q 542 77 543 65 q 541 93 541 90 l 541 92 l 541 95 q 305 -18 436 -18 q 95 213 95 -18 l 95 569 q 81 593 92 593 q 51 566 71 593 l 37 543 l 20 543 z "},"v":{"ha":647,"x_min":7,"x_max":642,"o":"m 7 543 q 62 633 25 597 q 81 649 72 643 l 82 650 l 83 650 q 122 663 101 662 q 124 663 123 663 q 127 663 126 663 q 132 663 129 663 q 136 663 135 663 q 189 627 174 659 l 189 627 l 391 155 l 455 302 q 464 323 458 309 q 472 343 470 338 l 473 346 l 611 663 l 642 663 q 476 294 593 567 l 346 -8 l 337 -8 l 100 545 l 98 548 l 94 556 l 91 565 l 88 572 l 86 574 q 70 592 79 590 q 53 587 60 595 q 38 570 45 580 q 27 552 31 560 l 24 543 l 7 543 z "},"w":{"ha":991,"x_min":7,"x_max":987,"o":"m 7 543 q 62 633 25 597 q 81 649 72 643 l 82 650 l 83 650 q 122 663 101 662 q 124 663 123 663 q 127 663 126 663 q 132 663 129 663 q 136 663 135 663 q 196 604 187 658 q 193 619 195 614 l 391 155 l 455 302 q 464 323 458 309 q 472 343 470 338 l 473 346 l 502 412 l 445 545 l 443 548 l 439 556 l 436 565 l 433 571 l 431 574 q 415 592 424 590 q 398 587 406 595 q 383 570 390 580 q 373 552 376 560 l 369 543 l 352 543 q 407 633 370 597 q 427 649 417 643 q 427 649 427 649 q 428 650 427 650 q 467 663 446 662 q 470 663 468 663 q 472 663 471 663 q 477 663 474 663 q 481 663 480 663 q 496 660 491 661 q 498 659 496 660 q 509 654 505 657 l 509 654 q 518 648 513 652 l 519 646 q 527 639 524 643 l 528 638 l 528 637 q 532 630 530 633 q 533 629 532 629 q 533 629 533 629 q 533 628 533 628 q 534 627 534 628 q 541 604 538 617 q 538 619 540 614 l 564 556 l 577 527 l 736 155 l 800 302 q 809 323 804 309 q 817 343 815 338 l 819 346 l 956 663 l 987 663 q 821 294 939 567 l 691 -8 l 682 -8 l 514 383 q 495 340 508 370 q 476 294 483 311 l 346 -8 l 337 -8 l 100 545 l 98 548 l 94 556 l 91 565 l 88 571 l 86 574 q 70 592 79 590 q 53 587 60 595 q 38 570 45 580 q 27 552 31 560 l 24 543 l 7 543 z "},"x":{"ha":530,"x_min":17,"x_max":513,"o":"m 17 543 q 71 633 35 598 q 92 650 80 643 q 92 650 92 650 q 93 650 92 650 q 132 663 111 663 l 136 663 l 137 663 l 136 663 l 146 663 q 160 661 155 662 l 161 661 q 162 660 161 660 q 174 655 170 657 l 174 654 q 182 648 177 652 q 183 648 183 648 l 184 647 q 191 640 187 645 q 192 638 191 639 q 193 637 193 637 q 195 635 194 636 q 196 633 195 633 q 198 630 197 632 q 199 628 199 629 l 300 391 l 476 642 l 489 661 l 513 661 l 309 370 l 421 111 l 422 107 l 426 99 l 430 90 l 433 83 l 434 81 q 451 63 441 65 q 468 68 460 60 q 482 85 475 75 q 493 103 489 95 l 497 112 l 513 112 q 459 22 496 58 q 439 6 450 14 q 438 6 438 6 q 437 5 438 5 q 399 -7 419 -7 q 396 -8 398 -7 q 394 -8 395 -8 l 393 -8 l 394 -8 q 389 -8 392 -8 q 385 -7 386 -7 q 370 -5 375 -6 l 370 -4 q 368 -4 369 -4 q 357 1 360 -1 q 348 7 353 3 l 346 9 q 339 16 342 12 q 338 17 339 16 q 337 19 338 18 q 335 21 336 20 q 334 23 334 22 q 333 25 334 24 q 332 28 332 27 l 232 260 l 44 -6 l 21 -6 l 222 281 l 109 545 l 108 549 l 104 556 l 100 565 l 98 572 l 96 575 q 80 593 89 591 q 63 588 71 595 q 48 571 55 581 q 37 552 41 561 l 33 543 l 17 543 m 207 600 q 208 583 208 593 q 207 600 208 593 l 207 601 l 207 600 m 322 73 q 323 56 322 62 l 323 54 l 323 56 q 322 73 322 62 z "},"y":{"ha":647,"x_min":7,"x_max":642,"o":"m 7 543 q 62 633 25 597 q 81 649 72 643 l 82 650 l 83 650 q 122 663 101 662 q 124 663 123 663 q 127 663 126 663 q 132 663 129 663 q 136 663 135 663 q 189 627 174 659 l 189 627 l 391 155 l 425 234 l 431 246 l 455 302 q 464 323 458 309 q 472 343 470 338 l 473 346 l 611 663 l 642 663 q 476 294 593 567 l 448 230 l 290 -153 q 181 -295 248 -253 q 25 -337 115 -337 l 27 -311 q 57 -254 30 -275 q 107 -235 79 -235 q 119 -236 113 -235 q 143 -238 132 -238 q 176 -233 161 -238 q 218 -213 203 -227 q 245 -186 234 -200 q 262 -162 257 -172 l 266 -152 l 307 -54 l 331 7 l 100 545 l 98 548 l 94 556 l 91 565 l 88 571 l 86 574 q 70 592 79 590 q 53 587 60 595 q 38 570 45 580 q 27 552 31 560 l 24 543 l 7 543 z "},"z":{"ha":557,"x_min":16,"x_max":543,"o":"m 17 1 l 380 644 l 317 644 q 284 641 304 644 q 209 625 264 639 q 109 589 154 611 q 80 583 94 583 q 41 598 60 583 q 17 646 16 618 q 19 663 17 654 l 515 663 l 515 658 l 149 15 l 210 15 q 326 33 258 15 q 437 74 395 51 q 472 83 455 83 q 514 68 494 83 q 543 14 543 46 q 541 -4 543 5 l 17 -4 l 17 1 z "},"{":{"ha":300,"x_min":37,"x_max":349,"o":"m 37 377 l 37 392 q 127 432 94 395 q 159 522 159 469 q 143 603 159 557 q 110 700 126 650 q 93 795 93 750 q 154 927 93 887 q 349 967 215 967 l 349 952 q 223 920 265 952 q 181 819 181 888 q 212 680 181 767 q 243 551 243 592 q 196 441 243 485 q 84 385 150 397 q 196 329 150 372 q 243 219 243 285 q 212 90 243 178 q 181 -49 181 3 q 223 -151 181 -118 q 349 -183 265 -183 l 349 -197 q 154 -158 215 -197 q 93 -26 93 -118 q 110 69 93 19 q 143 166 126 119 q 159 247 159 212 q 127 337 159 300 q 37 377 94 374 z "},"|":{"ha":183,"x_min":69,"x_max":114,"o":"m 69 -80 l 69 975 l 114 975 l 114 -80 l 69 -80 z "},"}":{"ha":298,"x_min":-52,"x_max":260,"o":"m -52 -183 q 76 -151 34 -183 q 118 -49 118 -118 q 87 90 118 3 q 57 219 57 178 q 103 329 57 286 q 215 385 149 372 q 103 440 149 397 q 57 551 57 484 q 87 680 57 592 q 118 819 118 767 q 76 920 118 888 q -52 952 34 952 l -52 967 q 145 927 83 967 q 207 795 207 887 q 190 700 207 750 q 156 603 173 650 q 139 522 139 557 q 171 432 139 469 q 260 392 203 395 l 260 377 q 171 337 203 374 q 139 247 139 300 q 156 166 139 212 q 190 69 173 119 q 207 -26 207 19 q 145 -158 207 -118 q -52 -197 84 -197 l -52 -183 z "},"~":{"ha":569,"x_min":24,"x_max":546,"o":"m 24 389 q 66 498 35 461 q 151 534 96 534 q 226 519 184 534 q 300 486 267 504 q 371 453 333 468 q 436 437 409 437 q 496 461 473 437 q 531 536 519 486 l 546 532 q 419 387 525 387 q 345 402 386 387 q 270 436 303 418 q 199 469 237 454 q 134 484 161 484 q 75 460 98 484 q 39 386 52 436 l 24 389 z "}," ":{"ha":369,"x_min":0,"x_max":0,"o":""},"£":{"ha":694,"x_min":37,"x_max":662,"o":"m 37 12 q 80 43 65 32 q 118 78 94 54 q 154 122 142 101 q 176 176 166 144 q 186 245 186 208 q 147 424 186 313 l 45 424 l 45 446 l 140 446 q 117 515 125 490 q 102 577 110 539 q 95 648 95 616 q 164 827 95 759 q 342 896 233 896 q 437 881 393 896 q 513 841 481 866 q 567 790 545 815 q 606 736 589 765 l 588 726 q 504 719 548 703 q 445 779 460 735 q 411 852 425 835 q 379 869 397 869 q 262 808 309 869 q 216 657 216 748 q 217 628 216 643 q 221 597 218 614 q 227 568 224 580 q 236 535 230 555 q 244 507 241 515 q 253 475 246 498 q 262 446 260 452 l 449 446 l 449 424 l 269 424 q 290 304 290 349 q 185 113 290 196 q 347 84 242 111 q 497 58 451 58 q 555 66 531 58 q 595 90 580 74 q 618 120 610 106 q 633 156 626 135 l 649 201 l 662 201 l 655 154 q 650 122 652 135 q 643 89 648 110 q 629 54 637 68 q 608 23 622 40 q 578 -4 595 6 q 536 -21 562 -14 q 481 -28 511 -28 q 366 -11 433 -28 q 243 22 300 5 q 163 39 186 39 q 54 -16 109 39 l 37 12 z "},"­":{"ha":0,"x_min":0,"x_max":0,"o":""},"À":{"ha":751,"x_min":0,"x_max":753,"o":"m 0 5 l 162 395 l 376 917 l 380 917 l 753 3 l 616 3 l 498 296 l 149 296 l 29 5 l 0 5 m 151 1245 l 315 1245 l 413 1015 l 403 1008 l 151 1245 m 158 319 l 490 319 l 324 729 l 185 386 l 158 319 z "},"Á":{"ha":751,"x_min":0,"x_max":753,"o":"m 0 5 l 162 395 l 376 917 l 380 917 l 753 3 l 616 3 l 498 296 l 149 296 l 29 5 l 0 5 m 158 319 l 490 319 l 324 729 l 185 386 l 158 319 m 286 1015 l 383 1245 l 547 1245 l 296 1008 l 286 1015 z "},"Â":{"ha":751,"x_min":0,"x_max":753,"o":"m 0 5 l 162 395 l 376 917 l 380 917 l 753 3 l 616 3 l 498 296 l 149 296 l 29 5 l 0 5 m 153 1015 l 382 1245 l 391 1245 l 619 1015 l 611 1008 l 387 1137 l 161 1008 l 153 1015 m 158 319 l 490 319 l 324 729 l 185 386 l 158 319 z "},"Ã":{"ha":751,"x_min":0,"x_max":753,"o":"m 0 5 l 162 395 l 376 917 l 380 917 l 753 3 l 616 3 l 498 296 l 149 296 l 29 5 l 0 5 m 133 1036 q 255 1191 155 1191 q 344 1171 292 1191 q 445 1130 396 1150 q 521 1110 493 1110 q 606 1191 582 1110 l 620 1188 q 497 1032 597 1032 q 408 1053 460 1032 q 308 1093 356 1073 q 232 1113 260 1113 q 179 1093 199 1113 q 146 1032 159 1073 l 133 1036 m 158 319 l 490 319 l 324 729 l 185 386 l 158 319 z "},"Ä":{"ha":751,"x_min":0,"x_max":753,"o":"m 0 5 l 162 395 l 376 917 l 380 917 l 753 3 l 616 3 l 498 296 l 149 296 l 29 5 l 0 5 m 158 319 l 490 319 l 324 729 l 185 386 l 158 319 m 199 1069 q 191 1078 199 1069 q 182 1112 182 1086 q 199 1154 182 1137 q 241 1171 217 1171 q 283 1154 266 1171 q 300 1112 300 1137 q 283 1069 300 1086 q 241 1053 266 1053 q 199 1069 217 1053 m 472 1069 q 463 1078 472 1069 q 454 1112 454 1086 q 472 1154 454 1137 q 514 1171 490 1171 q 555 1154 538 1171 q 572 1112 572 1137 q 555 1069 572 1086 q 514 1053 538 1053 q 472 1069 490 1053 z "},"Å":{"ha":751,"x_min":0,"x_max":753,"o":"m 0 5 l 162 395 l 376 917 l 380 917 l 753 3 l 616 3 l 498 296 l 149 296 l 29 5 l 0 5 m 158 319 l 490 319 l 324 729 l 185 386 l 158 319 m 268 1000 q 246 1019 268 1000 q 224 1100 224 1039 q 268 1200 224 1161 q 376 1240 311 1240 q 485 1200 441 1240 q 528 1100 528 1161 q 485 1000 528 1039 q 376 961 441 961 q 268 1000 311 961 m 309 1189 q 297 1173 309 1189 q 286 1100 286 1156 q 309 1011 286 1044 q 376 979 333 979 q 442 1011 418 979 q 465 1100 465 1044 q 442 1189 465 1156 q 376 1221 418 1221 q 309 1189 333 1221 z "},"Æ":{"ha":919,"x_min":-3,"x_max":890,"o":"m -3 -5 l 159 385 l 373 907 l 889 907 l 890 750 l 863 750 q 826 812 850 787 q 776 852 802 838 q 715 874 751 866 q 651 883 679 882 q 586 885 624 885 l 515 885 l 515 489 l 749 489 l 749 467 l 515 467 l 515 35 l 586 35 q 651 36 624 35 q 715 46 679 38 q 776 67 751 54 q 826 107 802 81 q 863 170 850 133 l 890 170 l 889 12 l 389 12 l 389 471 l 220 471 l 182 376 l 155 309 l 171 352 l 146 286 l 26 -5 l -3 -5 m 228 489 l 389 489 l 389 875 l 321 719 l 228 489 z "},"Ç":{"ha":850,"x_min":33,"x_max":836,"o":"m 33 429 q 68 623 33 534 q 163 771 102 711 q 308 865 224 831 q 488 899 391 899 q 680 859 591 899 q 823 755 768 819 q 714 715 779 708 q 618 779 650 723 q 558 852 590 826 q 481 879 526 879 q 318 824 389 879 q 209 674 247 769 q 171 460 171 579 q 268 144 171 260 q 517 28 366 28 q 684 69 604 28 q 821 197 764 110 l 836 189 q 678 31 772 87 q 462 -26 583 -26 q 291 7 370 -26 q 155 98 212 39 q 66 242 98 156 q 33 429 33 328 m 348 -292 l 353 -279 q 392 -288 364 -283 q 440 -292 420 -292 q 515 -272 488 -292 q 542 -221 542 -252 q 513 -173 542 -193 q 436 -153 485 -153 l 401 -153 l 458 -26 l 486 -26 l 461 -79 q 579 -117 536 -84 q 621 -198 621 -151 q 577 -284 621 -251 q 463 -317 532 -317 q 348 -292 391 -317 z "},"È":{"ha":597,"x_min":69,"x_max":570,"o":"m 69 3 l 69 897 l 569 897 l 570 740 l 543 741 q 506 803 530 777 q 456 842 481 829 q 395 864 431 856 q 332 873 359 871 q 266 875 304 875 l 195 875 l 195 479 l 429 479 l 429 457 l 195 457 l 195 25 l 266 25 q 332 27 304 25 q 395 36 359 28 q 456 58 431 44 q 506 97 481 71 q 543 159 530 123 l 570 160 l 569 3 l 69 3 m 132 1245 l 296 1245 l 393 1015 l 384 1008 l 132 1245 z "},"É":{"ha":597,"x_min":69,"x_max":570,"o":"m 69 3 l 69 897 l 569 897 l 570 740 l 543 741 q 506 803 530 777 q 456 842 481 829 q 395 864 431 856 q 332 873 359 871 q 266 875 304 875 l 195 875 l 195 479 l 429 479 l 429 457 l 195 457 l 195 25 l 266 25 q 332 27 304 25 q 395 36 359 28 q 456 58 431 44 q 506 97 481 71 q 543 159 530 123 l 570 160 l 569 3 l 69 3 m 295 1015 l 393 1245 l 557 1245 l 304 1008 l 295 1015 z "},"Ê":{"ha":597,"x_min":69,"x_max":570,"o":"m 69 3 l 69 897 l 569 897 l 570 740 l 543 741 q 506 803 530 777 q 456 842 481 829 q 395 864 431 856 q 332 873 359 871 q 266 875 304 875 l 195 875 l 195 479 l 429 479 l 429 457 l 195 457 l 195 25 l 266 25 q 332 27 304 25 q 395 36 359 28 q 456 58 431 44 q 506 97 481 71 q 543 159 530 123 l 570 160 l 569 3 l 69 3 m 96 1015 l 326 1245 l 334 1245 l 562 1015 l 554 1008 l 330 1137 l 104 1008 l 96 1015 z "},"Ë":{"ha":597,"x_min":69,"x_max":570,"o":"m 69 3 l 69 897 l 569 897 l 570 740 l 543 741 q 506 803 530 777 q 456 842 481 829 q 395 864 431 856 q 332 873 359 871 q 266 875 304 875 l 195 875 l 195 479 l 429 479 l 429 457 l 195 457 l 195 25 l 266 25 q 332 27 304 25 q 395 36 359 28 q 456 58 431 44 q 506 97 481 71 q 543 159 530 123 l 570 160 l 569 3 l 69 3 m 158 1069 q 150 1078 158 1069 q 141 1112 141 1086 q 158 1154 141 1137 q 199 1171 175 1171 q 241 1154 224 1171 q 259 1112 259 1137 q 241 1069 259 1086 q 199 1053 224 1053 q 158 1069 175 1053 m 431 1069 q 422 1078 431 1069 q 414 1112 414 1086 q 431 1154 414 1137 q 472 1171 448 1171 q 514 1154 496 1171 q 532 1112 532 1137 q 514 1069 532 1086 q 472 1053 496 1053 q 431 1069 448 1053 z "},"Ì":{"ha":264,"x_min":-109,"x_max":194,"o":"m -109 1245 l 56 1245 l 152 1015 l 142 1008 l -109 1245 m 68 3 l 68 897 l 194 897 l 194 3 l 68 3 z "},"Í":{"ha":264,"x_min":69,"x_max":376,"o":"m 69 3 l 69 897 l 195 897 l 195 3 l 69 3 m 116 1015 l 212 1245 l 376 1245 l 125 1008 l 116 1015 z "},"Î":{"ha":264,"x_min":-85,"x_max":382,"o":"m -85 1015 l 145 1245 l 153 1245 l 382 1015 l 374 1008 l 149 1137 l -77 1008 l -85 1015 m 69 3 l 69 897 l 195 897 l 195 3 l 69 3 z "},"Ï":{"ha":265,"x_min":-56,"x_max":335,"o":"m -38 1069 q -47 1078 -38 1069 q -56 1111 -56 1086 q -38 1153 -56 1135 q 4 1171 -20 1171 q 45 1153 28 1171 q 62 1111 62 1135 q 45 1069 62 1086 q 4 1053 28 1053 q -38 1069 -20 1053 m 69 3 l 69 897 l 195 897 l 195 3 l 69 3 m 235 1069 q 226 1078 235 1069 q 217 1111 217 1086 q 235 1153 217 1135 q 277 1171 252 1171 q 318 1153 301 1171 q 335 1111 335 1135 q 318 1069 335 1086 q 277 1053 301 1053 q 235 1069 252 1053 z "},"Ñ":{"ha":761,"x_min":26,"x_max":691,"o":"m 26 893 l 26 897 l 175 897 l 667 204 l 667 507 l 667 898 l 691 898 l 691 -12 l 680 -12 l 111 776 l 111 5 l 87 5 l 87 810 l 26 893 m 132 1029 q 254 1184 154 1184 q 343 1164 292 1184 q 444 1123 395 1143 q 520 1103 492 1103 q 573 1124 553 1103 q 605 1184 593 1144 l 618 1181 q 496 1025 595 1025 q 407 1046 459 1025 q 307 1086 355 1066 q 231 1106 258 1106 q 178 1086 198 1106 q 146 1025 158 1066 l 132 1029 z "},"Ò":{"ha":996,"x_min":33,"x_max":964,"o":"m 33 441 q 70 636 33 547 q 170 785 106 725 q 320 879 233 845 q 507 912 407 912 q 686 881 602 912 q 831 792 769 849 q 928 648 892 734 q 964 458 964 562 q 927 264 964 353 q 827 115 890 175 q 677 21 764 55 q 490 -12 590 -12 q 311 19 395 -12 q 166 108 228 51 q 69 252 104 165 q 33 441 33 338 m 171 455 q 263 131 171 255 q 504 7 356 7 q 738 127 650 7 q 826 445 826 247 q 734 769 826 645 q 496 892 642 892 q 260 773 349 892 q 171 455 171 653 m 356 1245 l 520 1245 l 618 1015 l 608 1008 l 356 1245 z "},"Ó":{"ha":996,"x_min":33,"x_max":964,"o":"m 33 441 q 70 636 33 547 q 170 785 106 725 q 320 879 233 845 q 507 912 407 912 q 686 881 602 912 q 831 792 769 849 q 928 648 892 734 q 964 458 964 562 q 927 264 964 353 q 827 115 890 175 q 677 21 764 55 q 490 -12 590 -12 q 311 19 395 -12 q 166 108 228 51 q 69 252 104 165 q 33 441 33 338 m 171 455 q 263 131 171 255 q 504 7 356 7 q 738 127 650 7 q 826 445 826 247 q 734 769 826 645 q 496 892 642 892 q 260 773 349 892 q 171 455 171 653 m 472 1015 l 569 1245 l 733 1245 l 481 1008 l 472 1015 z "},"Ô":{"ha":996,"x_min":33,"x_max":964,"o":"m 33 441 q 70 636 33 547 q 170 785 106 725 q 320 879 233 845 q 507 912 407 912 q 686 881 602 912 q 831 792 769 849 q 928 648 892 734 q 964 458 964 562 q 927 264 964 353 q 827 115 890 175 q 677 21 764 55 q 490 -12 590 -12 q 311 19 395 -12 q 166 108 228 51 q 69 252 104 165 q 33 441 33 338 m 171 455 q 263 131 171 255 q 504 7 356 7 q 738 127 650 7 q 826 445 826 247 q 734 769 826 645 q 496 892 642 892 q 260 773 349 892 q 171 455 171 653 m 282 1015 l 512 1245 l 520 1245 l 748 1015 l 740 1008 l 516 1137 l 290 1008 l 282 1015 z "},"Õ":{"ha":996,"x_min":33,"x_max":964,"o":"m 33 441 q 70 636 33 547 q 170 785 106 725 q 320 879 233 845 q 507 912 407 912 q 686 881 602 912 q 831 792 769 849 q 928 648 892 734 q 964 458 964 562 q 927 264 964 353 q 827 115 890 175 q 677 21 764 55 q 490 -12 590 -12 q 311 19 395 -12 q 166 108 228 51 q 69 252 104 165 q 33 441 33 338 m 171 455 q 263 131 171 255 q 504 7 356 7 q 738 127 650 7 q 826 445 826 247 q 734 769 826 645 q 496 892 642 892 q 260 773 349 892 q 171 455 171 653 m 235 1029 q 357 1184 258 1184 q 447 1164 395 1184 q 547 1123 498 1143 q 623 1103 595 1103 q 676 1124 656 1103 q 708 1184 696 1144 l 722 1181 q 600 1025 698 1025 q 510 1046 562 1025 q 410 1086 458 1066 q 334 1106 361 1106 q 281 1086 301 1106 q 249 1025 261 1066 l 235 1029 z "},"Ö":{"ha":996,"x_min":33,"x_max":964,"o":"m 33 441 q 70 636 33 547 q 170 785 106 725 q 320 879 233 845 q 507 912 407 912 q 686 881 602 912 q 831 792 769 849 q 928 648 892 734 q 964 458 964 562 q 927 264 964 353 q 827 115 890 175 q 677 21 764 55 q 490 -12 590 -12 q 311 19 395 -12 q 166 108 228 51 q 69 252 104 165 q 33 441 33 338 m 171 455 q 263 131 171 255 q 504 7 356 7 q 738 127 650 7 q 826 445 826 247 q 734 769 826 645 q 496 892 642 892 q 260 773 349 892 q 171 455 171 653 m 317 1069 q 309 1078 317 1069 q 300 1112 300 1086 q 317 1154 300 1137 q 359 1171 335 1171 q 401 1154 384 1171 q 418 1112 418 1137 q 401 1069 418 1086 q 359 1053 384 1053 q 317 1069 335 1053 m 590 1069 q 581 1078 590 1069 q 572 1112 572 1086 q 590 1154 572 1137 q 632 1171 608 1171 q 674 1154 656 1171 q 692 1112 692 1137 q 674 1069 692 1086 q 632 1053 656 1053 q 590 1069 608 1053 z "},"Ø":{"ha":1000,"x_min":36,"x_max":966,"o":"m 36 441 q 73 636 36 547 q 173 785 109 725 q 323 879 236 845 q 509 912 410 912 q 784 831 665 912 l 861 922 l 884 902 l 808 813 q 924 662 882 753 q 966 458 966 572 q 930 264 966 353 q 830 115 893 175 q 680 21 766 55 q 493 -12 593 -12 q 190 90 313 -12 l 104 -9 l 82 9 l 168 110 q 36 441 36 236 m 174 455 q 233 186 174 300 l 734 772 q 499 892 642 892 q 262 773 351 892 q 174 455 174 653 m 248 158 q 359 47 293 86 q 507 7 426 7 q 741 127 652 7 q 829 445 829 247 q 751 747 829 626 l 248 158 z "},"Ù":{"ha":762,"x_min":61,"x_max":701,"o":"m 61 310 l 61 897 l 186 897 l 186 313 q 249 97 186 170 q 431 25 311 25 q 612 96 547 25 q 677 306 677 167 l 677 897 l 701 897 l 701 313 q 385 -12 701 -12 q 143 71 224 -12 q 61 310 61 154 m 241 1245 l 405 1245 l 503 1015 l 492 1008 l 241 1245 z "},"Ú":{"ha":762,"x_min":61,"x_max":701,"o":"m 61 310 l 61 897 l 186 897 l 186 313 q 249 97 186 170 q 431 25 311 25 q 612 96 547 25 q 677 306 677 167 l 677 897 l 701 897 l 701 313 q 385 -12 701 -12 q 143 71 224 -12 q 61 310 61 154 m 338 1015 l 436 1245 l 600 1245 l 348 1008 l 338 1015 z "},"Û":{"ha":762,"x_min":61,"x_max":701,"o":"m 61 310 l 61 897 l 186 897 l 186 313 q 249 97 186 170 q 431 25 311 25 q 612 96 547 25 q 677 306 677 167 l 677 897 l 701 897 l 701 313 q 385 -12 701 -12 q 143 71 224 -12 q 61 310 61 154 m 143 1015 l 372 1245 l 381 1245 l 609 1015 l 601 1008 l 376 1137 l 151 1008 l 143 1015 z "},"Ü":{"ha":762,"x_min":61,"x_max":701,"o":"m 61 310 l 61 897 l 186 897 l 186 313 q 249 97 186 170 q 431 25 311 25 q 612 96 547 25 q 677 306 677 167 l 677 897 l 701 897 l 701 313 q 385 -12 701 -12 q 143 71 224 -12 q 61 310 61 154 m 226 1069 q 217 1078 226 1069 q 209 1112 209 1086 q 226 1154 209 1137 q 267 1171 243 1171 q 309 1154 292 1171 q 327 1112 327 1137 q 309 1069 327 1086 q 267 1053 292 1053 q 226 1069 243 1053 m 498 1069 q 490 1078 498 1069 q 481 1112 481 1086 q 498 1154 481 1137 q 540 1171 515 1171 q 582 1154 564 1171 q 600 1112 600 1137 q 582 1069 600 1086 q 540 1053 564 1053 q 498 1069 515 1053 z "},"Ý":{"ha":684,"x_min":-9,"x_max":694,"o":"m -9 897 l 134 897 l 397 430 l 461 543 l 663 898 l 694 897 q 483 532 594 732 l 408 401 l 408 3 l 283 3 l 283 386 l -9 897 m 303 1015 l 399 1245 l 563 1245 l 313 1008 l 303 1015 z "},"ß":{"ha":790,"x_min":-43,"x_max":764,"o":"m -43 710 l -43 741 l 64 741 l 64 817 q 88 958 64 897 q 156 1058 113 1020 q 257 1114 200 1095 q 382 1133 314 1133 q 578 1078 498 1133 q 659 930 659 1022 q 640 854 659 889 q 595 795 622 819 q 535 749 568 772 q 476 707 503 725 q 431 663 449 688 q 412 610 412 637 q 443 545 412 572 q 534 485 473 518 l 586 454 q 640 422 618 436 q 687 386 661 408 q 728 340 713 363 q 754 285 743 317 q 764 216 764 253 q 693 49 764 111 q 506 -14 621 -14 q 381 5 444 -14 q 278 53 319 23 q 324 96 288 88 q 384 76 359 104 q 514 5 447 5 q 637 48 593 5 q 682 154 682 91 q 672 205 682 181 q 650 245 663 229 q 612 281 637 262 q 570 311 587 300 q 521 339 553 321 l 468 368 q 417 399 438 385 q 375 435 395 414 q 343 483 354 456 q 332 541 332 509 q 346 602 332 573 q 379 653 359 631 q 424 698 399 675 q 473 745 449 720 q 515 798 496 770 q 544 866 534 826 q 549 953 553 906 q 491 1068 542 1021 q 373 1114 441 1115 q 241 1050 286 1113 q 196 886 196 987 l 196 3 l 64 3 l 64 710 l -43 710 z "},"à":{"ha":659,"x_min":24,"x_max":641,"o":"m 24 150 q 104 289 24 223 q 352 420 184 355 l 459 463 q 438 592 456 546 q 393 652 420 637 q 322 667 366 667 q 237 641 271 667 q 219 604 225 633 q 194 565 214 579 q 149 553 174 551 q 107 574 124 555 l 87 597 q 209 659 137 630 q 342 687 280 687 q 405 681 376 687 q 465 659 434 675 q 517 617 495 643 q 552 547 538 591 q 566 446 566 503 l 566 111 q 566 106 566 109 q 566 102 566 103 q 610 105 572 52 q 625 127 610 105 l 641 127 q 633 105 638 119 q 608 63 627 92 q 566 21 589 35 l 566 20 l 565 20 q 526 7 547 8 l 522 7 l 512 7 q 468 29 482 10 q 451 71 453 48 q 450 85 450 75 q 449 100 449 96 l 449 101 q 449 103 449 102 q 448 105 448 104 l 448 107 l 448 111 l 448 248 q 420 168 437 207 q 197 0 345 2 l 193 0 q 66 47 115 0 q 24 150 24 90 m 122 188 q 162 101 122 136 q 260 65 203 65 q 427 239 374 65 q 460 444 458 337 l 357 401 q 239 346 282 369 q 168 299 195 323 q 131 249 140 274 q 122 188 122 224 m 153 1040 l 299 1040 l 401 798 l 391 791 l 153 1040 z "},"á":{"ha":659,"x_min":24,"x_max":641,"o":"m 24 150 q 104 289 24 223 q 352 420 184 355 l 459 463 q 438 592 456 546 q 393 652 420 637 q 322 667 366 667 q 237 641 271 667 q 219 604 225 633 q 194 565 214 579 q 149 553 174 551 q 107 574 124 555 l 87 597 q 209 659 137 630 q 342 687 280 687 q 405 681 376 687 q 465 659 434 675 q 517 617 495 643 q 552 547 538 591 q 566 446 566 503 l 566 111 q 566 106 566 109 q 566 102 566 103 q 610 105 572 52 q 625 127 610 105 l 641 127 q 633 105 638 119 q 608 63 627 92 q 566 21 589 35 l 566 20 l 565 20 q 526 7 547 8 l 522 7 l 512 7 q 468 29 482 10 q 451 71 453 48 q 450 85 450 75 q 449 100 449 96 l 449 101 q 449 103 449 102 q 448 105 448 104 l 448 107 l 448 111 l 448 248 q 420 168 437 207 q 197 0 345 2 l 193 0 q 66 47 115 0 q 24 150 24 90 m 122 188 q 162 101 122 136 q 260 65 203 65 q 427 239 374 65 q 460 444 458 337 l 357 401 q 239 346 282 369 q 168 299 195 323 q 131 249 140 274 q 122 188 122 224 m 264 798 l 365 1040 l 511 1040 l 274 791 l 264 798 z "},"â":{"ha":659,"x_min":24,"x_max":641,"o":"m 24 150 q 104 289 24 223 q 352 420 184 355 l 459 463 q 438 592 456 546 q 393 652 420 637 q 322 667 366 667 q 237 641 271 667 q 219 604 225 633 q 194 565 214 579 q 149 553 174 551 q 107 574 124 555 l 87 597 q 209 659 137 630 q 342 687 280 687 q 405 681 376 687 q 465 659 434 675 q 517 617 495 643 q 552 547 538 591 q 566 446 566 503 l 566 111 q 566 106 566 109 q 566 102 566 103 q 610 105 572 52 q 625 127 610 105 l 641 127 q 633 105 638 119 q 608 63 627 92 q 566 21 589 35 l 566 20 l 565 20 q 526 7 547 8 l 522 7 l 512 7 q 468 29 482 10 q 451 71 453 48 q 450 85 450 75 q 449 100 449 96 l 449 101 q 449 103 449 102 q 448 105 448 104 l 448 107 l 448 111 l 448 248 q 420 168 437 207 q 197 0 345 2 l 193 0 q 66 47 115 0 q 24 150 24 90 m 122 188 q 162 101 122 136 q 260 65 203 65 q 427 239 374 65 q 460 444 458 337 l 357 401 q 239 346 282 369 q 168 299 195 323 q 131 249 140 274 q 122 188 122 224 m 132 798 l 342 1040 l 350 1040 l 562 798 l 553 791 l 346 930 l 140 791 l 132 798 z "},"ã":{"ha":659,"x_min":24,"x_max":641,"o":"m 24 150 q 104 289 24 223 q 352 420 184 355 l 459 463 q 438 592 456 546 q 393 652 420 637 q 322 667 366 667 q 237 641 271 667 q 219 604 225 633 q 194 565 214 579 q 149 553 174 551 q 107 574 124 555 l 87 597 q 209 659 137 630 q 342 687 280 687 q 405 681 376 687 q 465 659 434 675 q 517 617 495 643 q 552 547 538 591 q 566 446 566 503 l 566 111 q 566 106 566 109 q 566 102 566 103 q 610 105 572 52 q 625 127 610 105 l 641 127 q 633 105 638 119 q 608 63 627 92 q 566 21 589 35 l 566 20 l 565 20 q 526 7 547 8 l 522 7 l 512 7 q 468 29 482 10 q 451 71 453 48 q 450 85 450 75 q 449 100 449 96 l 449 101 q 449 103 449 102 q 448 105 448 104 l 448 107 l 448 111 l 448 248 q 420 168 437 207 q 197 0 345 2 l 193 0 q 66 47 115 0 q 24 150 24 90 m 98 787 q 138 901 108 860 q 220 943 169 943 q 304 922 257 943 q 396 882 352 902 q 467 862 439 862 q 520 882 500 862 q 552 943 540 903 l 566 940 q 444 784 543 784 q 359 804 407 784 q 268 845 312 825 q 196 865 224 865 q 143 845 163 865 q 111 784 123 825 l 98 787 m 122 188 q 162 101 122 136 q 260 65 203 65 q 427 239 374 65 q 460 444 458 337 l 357 401 q 239 346 282 369 q 168 299 195 323 q 131 249 140 274 q 122 188 122 224 z "},"ä":{"ha":659,"x_min":24,"x_max":641,"o":"m 24 150 q 104 289 24 223 q 352 420 184 355 l 459 463 q 438 592 456 546 q 393 652 420 637 q 322 667 366 667 q 237 641 271 667 q 219 604 225 633 q 194 565 214 579 q 149 553 174 551 q 107 574 124 555 l 87 597 q 209 659 137 630 q 342 687 280 687 q 405 681 376 687 q 465 659 434 675 q 517 617 495 643 q 552 547 538 591 q 566 446 566 503 l 566 111 q 566 106 566 109 q 566 102 566 103 q 610 105 572 52 q 625 127 610 105 l 641 127 q 633 105 638 119 q 608 63 627 92 q 566 21 589 35 l 566 20 l 565 20 q 526 7 547 8 l 522 7 l 512 7 q 468 29 482 10 q 451 71 453 48 q 450 85 450 75 q 449 100 449 96 l 449 101 q 449 103 449 102 q 448 105 448 104 l 448 107 l 448 111 l 448 248 q 420 168 437 207 q 197 0 345 2 l 193 0 q 66 47 115 0 q 24 150 24 90 m 122 188 q 162 101 122 136 q 260 65 203 65 q 427 239 374 65 q 460 444 458 337 l 357 401 q 239 346 282 369 q 168 299 195 323 q 131 249 140 274 q 122 188 122 224 m 150 823 q 133 865 132 840 q 151 907 133 890 q 192 923 168 924 q 233 906 216 923 q 251 865 250 889 q 234 823 251 840 q 192 805 217 806 q 150 823 167 805 m 414 823 q 397 864 397 840 q 415 906 397 888 q 457 923 433 923 q 498 906 481 923 q 515 864 515 888 q 498 823 515 840 q 457 805 481 805 q 414 823 432 805 z "},"å":{"ha":659,"x_min":24,"x_max":641,"o":"m 24 150 q 104 289 24 223 q 352 420 184 355 l 459 463 q 438 592 456 546 q 393 652 420 637 q 322 667 366 667 q 237 641 271 667 q 219 604 225 633 q 194 565 214 579 q 149 553 174 551 q 107 574 124 555 l 87 597 q 209 659 137 630 q 342 687 280 687 q 405 681 376 687 q 465 659 434 675 q 517 617 495 643 q 552 547 538 591 q 566 446 566 503 l 566 111 q 566 106 566 109 q 566 102 566 103 q 610 105 572 52 q 625 127 610 105 l 641 127 q 633 105 638 119 q 608 63 627 92 q 566 21 589 35 l 566 20 l 565 20 q 526 7 547 8 l 522 7 l 512 7 q 468 29 482 10 q 451 71 453 48 q 450 85 450 75 q 449 100 449 96 l 449 101 q 449 103 449 102 q 448 105 448 104 l 448 107 l 448 111 l 448 248 q 420 168 437 207 q 197 0 345 2 l 193 0 q 66 47 115 0 q 24 150 24 90 m 122 188 q 162 101 122 136 q 260 65 203 65 q 427 239 374 65 q 460 444 458 337 l 357 401 q 239 346 282 369 q 168 299 195 323 q 131 249 140 274 q 122 188 122 224 m 182 886 q 226 985 182 947 q 334 1024 269 1024 q 442 986 399 1024 q 486 886 486 947 q 442 786 486 825 q 334 747 399 747 q 226 786 269 747 q 182 886 182 825 m 245 886 q 268 798 245 830 q 334 765 292 765 q 401 798 377 765 q 425 886 425 830 q 401 975 425 942 q 334 1007 377 1007 q 268 975 292 1007 q 245 886 245 942 z "},"æ":{"ha":1131,"x_min":24,"x_max":1118,"o":"m 24 150 q 104 289 24 223 q 352 420 184 355 l 459 463 q 438 592 456 546 q 393 652 420 637 q 322 667 366 667 q 237 641 271 667 q 219 604 225 633 q 194 565 214 579 q 149 553 174 551 q 107 574 124 555 l 87 597 q 209 659 137 630 q 342 687 280 687 q 403 681 374 687 q 461 661 432 675 q 513 621 490 648 q 549 557 536 594 q 663 643 599 611 q 791 674 726 674 q 962 615 903 674 l 962 616 q 965 612 963 614 q 975 602 968 610 q 987 584 981 593 q 999 560 992 575 q 1009 529 1006 545 q 1015 491 1013 513 q 1013 446 1017 469 l 953 446 l 952 446 l 573 446 q 566 401 568 425 l 566 320 q 639 131 574 195 q 821 66 704 66 q 988 119 918 66 q 1109 274 1058 172 l 1118 269 q 945 52 1048 125 q 758 -10 857 -10 q 553 60 635 -10 q 452 245 471 131 l 448 248 q 420 168 437 207 q 197 0 345 2 l 193 0 q 66 47 115 0 q 24 150 24 90 m 122 188 q 162 101 122 136 q 260 65 203 65 q 427 239 374 65 q 449 334 441 288 q 454 374 452 360 q 460 444 460 423 l 357 401 q 239 346 282 369 q 168 299 195 323 q 131 249 140 274 q 122 188 122 224 m 578 467 l 909 467 q 905 570 919 530 q 866 631 891 610 q 865 631 865 631 l 864 632 q 843 645 855 640 l 835 648 q 795 654 817 654 q 668 610 718 654 q 578 467 618 566 m 996 467 l 996 467 l 996 467 z "},"ç":{"ha":631,"x_min":36,"x_max":612,"o":"m 36 327 q 129 578 36 481 q 358 675 222 675 q 605 563 516 675 q 501 537 559 522 q 421 610 443 553 q 364 656 404 656 q 219 573 275 656 q 163 354 163 491 q 225 127 163 208 q 387 45 287 45 q 500 75 444 45 q 597 163 557 105 l 612 155 q 358 -7 511 3 l 336 -54 q 454 -92 412 -58 q 496 -172 496 -125 q 452 -258 496 -225 q 338 -292 408 -292 q 223 -267 267 -292 l 228 -254 q 267 -262 239 -258 q 315 -267 295 -267 q 390 -247 363 -267 q 417 -196 417 -227 q 389 -148 417 -168 q 311 -127 360 -127 l 276 -127 l 330 -7 q 119 88 203 -3 q 36 327 36 180 z "},"è":{"ha":676,"x_min":33,"x_max":705,"o":"m 33 306 q 63 446 33 378 q 141 564 93 515 q 251 644 189 614 q 377 674 314 674 q 548 615 489 674 l 547 616 q 551 612 549 614 q 560 602 553 610 q 572 584 567 593 q 585 560 578 575 q 595 529 592 545 q 601 491 598 513 q 599 446 603 469 l 538 446 l 159 446 q 150 355 150 410 q 216 140 151 213 q 407 66 281 66 q 574 119 505 66 q 696 274 644 172 l 705 269 q 531 52 635 126 q 344 -10 442 -10 q 118 79 203 -10 q 33 306 33 168 m 163 467 l 495 467 q 491 570 505 530 q 452 631 477 610 l 451 631 q 450 632 450 632 q 429 645 440 640 l 420 648 q 381 654 403 654 q 254 610 303 654 q 163 467 204 566 m 221 1021 l 367 1021 l 467 779 l 458 772 l 221 1021 z "},"é":{"ha":676,"x_min":33,"x_max":705,"o":"m 33 306 q 63 446 33 378 q 141 564 93 515 q 251 644 189 614 q 377 674 314 674 q 548 615 489 674 l 547 616 q 551 612 549 614 q 560 602 553 610 q 572 584 567 593 q 585 560 578 575 q 595 529 592 545 q 601 491 598 513 q 599 446 603 469 l 538 446 l 159 446 q 150 355 150 410 q 216 140 151 213 q 407 66 281 66 q 574 119 505 66 q 696 274 644 172 l 705 269 q 531 52 635 126 q 344 -10 442 -10 q 118 79 203 -10 q 33 306 33 168 m 164 467 l 495 467 q 491 571 505 530 q 452 631 477 611 l 451 631 q 450 632 450 632 q 429 645 440 640 l 420 648 q 381 654 403 654 q 254 610 303 654 q 164 467 205 566 m 319 779 l 421 1021 l 567 1021 l 330 772 l 319 779 z "},"ê":{"ha":676,"x_min":33,"x_max":705,"o":"m 33 306 q 63 446 33 378 q 141 564 93 515 q 251 644 189 614 q 377 674 314 674 q 548 615 489 674 l 547 616 q 551 612 549 614 q 560 602 553 610 q 572 584 567 593 q 585 560 578 575 q 595 529 592 545 q 601 491 598 513 q 599 446 603 469 l 538 446 l 159 446 q 150 355 150 410 q 216 140 151 213 q 407 66 281 66 q 574 119 505 66 q 696 274 644 172 l 705 269 q 531 52 635 126 q 344 -10 442 -10 q 118 79 203 -10 q 33 306 33 168 m 163 467 l 495 467 q 491 570 505 530 q 452 631 477 610 l 451 631 q 450 632 450 632 q 429 645 440 640 l 420 648 q 381 654 403 654 q 254 610 303 654 q 163 467 204 566 m 172 779 l 382 1021 l 390 1021 l 600 779 l 592 772 l 386 911 l 180 772 l 172 779 z "},"ë":{"ha":676,"x_min":33,"x_max":705,"o":"m 33 306 q 63 446 33 378 q 141 564 93 515 q 251 644 189 614 q 377 674 314 674 q 548 615 489 674 l 547 616 q 551 612 549 614 q 560 602 553 610 q 572 584 567 593 q 585 560 578 575 q 595 529 592 545 q 601 491 598 513 q 599 446 603 469 l 538 446 l 159 446 q 150 355 150 410 q 216 140 151 213 q 407 66 281 66 q 574 119 505 66 q 696 274 644 172 l 705 269 q 531 52 635 126 q 344 -10 442 -10 q 118 79 203 -10 q 33 306 33 168 m 163 467 l 495 467 q 491 570 505 530 q 452 631 477 610 l 451 631 q 450 632 450 632 q 429 645 440 640 l 420 648 q 381 654 403 654 q 254 610 303 654 q 163 467 204 566 m 214 833 q 197 874 197 850 q 215 916 197 899 q 256 933 233 933 q 298 916 280 933 q 315 874 315 899 q 298 833 315 850 q 256 815 281 815 q 214 833 232 815 m 480 833 q 463 874 463 850 q 481 916 463 899 q 522 933 498 933 q 564 916 547 933 q 581 874 581 899 q 564 833 581 850 q 522 815 547 815 q 480 833 498 815 z "},"ì":{"ha":308,"x_min":-16,"x_max":288,"o":"m -16 1017 l 131 1017 l 231 774 l 221 768 l -16 1017 m 21 553 q 24 562 22 557 q 33 582 26 567 q 48 610 40 597 q 69 637 56 623 q 96 661 82 652 q 137 673 116 673 l 138 673 l 138 673 l 141 673 l 146 673 l 147 673 q 157 673 154 673 q 212 600 208 664 l 212 585 l 212 122 q 214 102 212 113 q 257 104 220 53 l 271 127 l 288 127 q 280 106 286 119 q 255 63 275 92 q 214 21 236 35 q 173 7 193 8 l 168 7 q 163 8 166 7 q 159 8 160 8 q 98 71 106 13 q 96 88 96 77 l 96 562 q 60 587 96 629 q 38 553 49 573 l 21 553 z "},"í":{"ha":308,"x_min":21,"x_max":365,"o":"m 21 553 q 24 562 22 557 q 33 582 26 567 q 48 610 40 597 q 69 637 56 623 q 96 661 82 652 q 137 673 116 673 l 138 673 l 138 673 l 141 673 l 146 673 q 157 673 154 673 q 212 600 208 664 l 212 585 l 212 585 l 212 122 q 213 102 212 113 q 257 105 219 52 q 271 127 271 127 l 288 127 q 279 106 285 119 q 255 63 274 92 q 213 21 235 35 q 173 7 192 8 l 168 7 q 163 8 166 7 q 159 8 160 8 q 98 71 106 13 q 96 88 96 77 l 96 562 q 60 587 96 629 q 38 553 49 573 l 21 553 m 117 774 l 219 1017 l 365 1017 l 127 768 l 117 774 z "},"î":{"ha":308,"x_min":-47,"x_max":381,"o":"m -47 774 l 163 1017 l 171 1017 l 381 774 l 373 768 l 167 907 l -39 768 l -47 774 m 21 553 q 30 575 24 562 q 55 618 35 589 q 97 661 75 647 q 138 673 117 673 l 138 673 l 141 673 l 147 673 q 157 673 154 673 q 212 600 208 664 l 212 585 l 212 122 q 214 102 212 113 q 257 104 220 53 l 271 127 l 288 127 q 280 106 286 119 q 255 63 275 92 q 214 21 236 35 q 173 7 193 8 l 168 7 q 163 8 166 7 q 159 8 160 8 q 98 71 106 13 q 97 88 97 77 l 97 562 q 60 587 96 629 q 38 553 49 572 l 21 553 z "},"ï":{"ha":308,"x_min":-56,"x_max":328,"o":"m -39 829 q -47 838 -39 829 q -56 870 -56 846 q -38 912 -56 895 q 3 929 -20 929 q 45 912 27 929 q 62 870 62 895 q 45 829 62 846 q 3 811 28 811 q -39 829 -22 811 m 21 553 q 30 575 24 562 q 55 618 35 589 q 97 661 75 647 q 138 673 117 673 l 138 673 l 141 673 l 146 673 l 147 673 q 157 673 154 673 q 212 600 208 664 l 212 585 l 212 122 q 214 102 212 113 q 257 104 220 53 l 271 127 l 288 127 q 280 106 286 119 q 255 63 275 92 q 214 21 236 35 q 173 7 193 8 l 168 7 q 163 8 166 7 q 159 8 160 8 q 98 71 106 13 q 97 88 97 77 l 97 562 q 60 587 96 629 q 38 553 49 572 l 21 553 m 227 829 q 219 838 227 829 q 210 870 210 846 q 228 912 210 895 q 269 929 245 929 q 311 912 293 929 q 328 870 328 895 q 311 829 328 846 q 269 811 294 811 q 227 829 244 811 z "},"ñ":{"ha":748,"x_min":21,"x_max":728,"o":"m 21 555 q 29 577 24 564 q 54 619 35 590 q 96 661 73 648 q 96 662 96 661 q 97 662 96 662 q 136 675 115 674 l 142 675 l 151 675 q 180 665 168 673 q 211 617 204 651 l 211 616 q 212 614 211 616 q 212 613 212 614 l 212 612 q 213 603 213 608 q 213 598 213 601 q 214 594 214 595 l 214 568 q 320 648 267 622 q 443 675 373 675 q 635 555 592 675 l 641 532 q 651 443 651 490 l 651 110 q 651 105 651 109 q 652 102 652 102 q 696 106 658 52 l 711 128 l 728 128 q 725 120 727 125 q 716 100 723 115 q 701 73 709 85 q 680 45 693 60 q 652 22 667 31 l 652 22 l 651 21 l 650 20 q 616 9 635 11 l 611 8 l 606 8 l 597 8 l 596 8 q 595 9 595 9 q 568 18 578 11 q 536 66 543 33 l 536 66 q 535 69 536 67 q 535 71 535 71 q 534 89 534 78 l 534 446 q 533 473 534 463 q 530 506 533 484 q 523 545 528 529 q 508 581 518 561 q 483 613 497 601 q 445 635 468 626 q 392 644 421 644 q 306 619 347 644 q 214 545 264 595 l 214 20 l 97 20 l 97 573 q 96 577 97 574 q 96 581 96 581 q 52 578 90 631 l 37 555 l 21 555 m 170 801 q 292 957 192 957 q 377 937 330 957 q 468 896 425 916 q 540 876 512 876 q 625 957 600 876 l 637 954 q 597 839 628 880 q 515 798 566 798 q 431 819 478 798 q 340 859 384 839 q 269 879 296 879 q 216 859 236 879 q 184 798 196 839 l 170 801 z "},"ò":{"ha":730,"x_min":30,"x_max":703,"o":"m 35 343 q 144 587 44 497 q 389 670 244 677 q 617 566 532 663 q 694 315 703 469 q 586 72 686 161 q 341 -10 486 -18 q 177 39 248 -5 q 68 162 106 83 q 35 343 30 241 m 161 344 q 205 104 153 197 q 349 6 258 12 q 502 86 441 1 q 569 315 562 170 q 525 554 577 461 q 380 653 472 648 q 229 574 288 658 q 161 344 169 490 m 225 991 l 373 991 l 473 749 l 463 742 l 225 991 z "},"ó":{"ha":730,"x_min":30,"x_max":703,"o":"m 35 343 q 144 587 44 497 q 389 670 244 677 q 617 566 532 663 q 694 315 703 469 q 586 72 686 161 q 341 -10 486 -18 q 177 39 248 -5 q 68 162 106 83 q 35 343 30 241 m 161 344 q 205 104 153 197 q 349 6 258 12 q 502 86 441 1 q 569 315 562 170 q 525 554 577 461 q 380 653 472 648 q 229 574 288 658 q 161 344 169 490 m 298 749 l 397 991 l 545 991 l 307 742 l 298 749 z "},"ô":{"ha":730,"x_min":30,"x_max":703,"o":"m 35 343 q 144 587 44 497 q 389 670 244 677 q 617 566 532 663 q 694 315 703 469 q 586 72 686 161 q 341 -10 486 -18 q 177 39 248 -5 q 68 162 106 83 q 35 343 30 241 m 160 766 l 372 1008 l 380 1008 l 590 766 l 582 758 l 376 897 l 168 758 l 160 766 m 161 344 q 205 104 153 197 q 349 6 258 12 q 502 86 441 1 q 569 315 562 170 q 525 554 577 461 q 380 653 472 648 q 229 574 288 658 q 161 344 169 490 z "},"õ":{"ha":730,"x_min":30,"x_max":703,"o":"m 35 343 q 144 587 44 497 q 389 670 244 677 q 617 566 532 663 q 694 315 703 469 q 586 72 686 161 q 341 -10 486 -18 q 177 39 248 -5 q 68 162 106 83 q 35 343 30 241 m 132 801 q 254 957 154 957 q 337 937 290 957 q 429 896 385 916 q 501 876 473 876 q 585 957 560 876 l 599 954 q 476 798 575 798 q 392 819 439 798 q 301 859 345 839 q 229 879 257 879 q 177 859 197 879 q 145 798 157 839 l 132 801 m 161 344 q 205 104 153 197 q 349 6 258 12 q 502 86 441 1 q 569 315 562 170 q 525 554 577 461 q 380 653 472 648 q 229 574 288 658 q 161 344 169 490 z "},"ö":{"ha":730,"x_min":30,"x_max":703,"o":"m 35 343 q 144 587 44 497 q 389 670 244 677 q 617 566 532 663 q 694 315 703 469 q 586 72 686 161 q 341 -10 486 -18 q 177 39 248 -5 q 68 162 106 83 q 35 343 30 241 m 161 344 q 205 104 153 197 q 349 6 258 12 q 502 86 441 1 q 569 315 562 170 q 525 554 577 461 q 380 653 472 648 q 229 574 288 658 q 161 344 169 490 m 201 842 q 184 884 184 860 q 201 926 184 908 q 243 943 218 943 q 284 926 267 943 q 302 884 302 908 q 285 842 302 860 q 243 825 267 825 q 201 842 218 825 m 467 842 q 449 884 449 859 q 467 926 450 909 q 509 942 484 943 q 550 925 533 942 q 567 884 567 908 q 551 842 568 859 q 509 824 534 825 q 467 842 484 824 z "},"ø":{"ha":733,"x_min":31,"x_max":701,"o":"m 37 343 q 145 587 45 497 q 391 670 245 677 q 572 608 497 664 l 608 658 l 621 649 l 583 599 q 671 478 641 551 q 696 315 701 406 q 587 72 687 161 q 342 -10 488 -18 q 176 41 249 -5 l 142 -4 l 130 4 l 163 50 q 65 172 98 96 q 37 343 31 247 m 162 344 q 205 107 154 202 l 529 549 q 382 653 477 648 q 230 574 290 658 q 162 344 170 490 m 214 93 q 351 6 266 11 q 503 86 443 1 q 570 315 563 170 q 536 534 577 445 l 214 93 z "},"ù":{"ha":755,"x_min":20,"x_max":734,"o":"m 20 554 q 23 563 21 557 q 32 582 24 568 q 47 610 39 597 q 68 637 55 623 q 95 661 81 652 l 96 661 l 96 661 q 138 674 116 673 l 138 674 l 141 674 l 144 674 l 145 674 q 212 612 202 671 l 212 222 q 212 195 212 205 q 215 163 212 185 q 223 127 218 142 q 238 94 228 113 q 264 64 249 75 q 302 44 279 52 q 355 36 326 36 q 451 62 401 36 q 541 134 500 89 l 541 674 l 653 674 l 658 674 l 658 122 q 659 102 658 113 q 703 104 665 53 l 717 127 l 734 127 q 726 106 731 119 q 701 64 720 93 q 659 21 682 35 l 659 20 l 658 20 q 618 7 640 8 l 614 7 l 604 7 q 560 29 574 10 q 544 71 546 47 q 542 88 543 76 q 541 104 541 100 l 541 106 q 305 -7 436 -7 q 95 224 95 -7 l 95 580 q 51 576 89 629 l 37 554 l 20 554 m 219 998 l 366 998 l 467 756 l 457 749 l 219 998 z "},"ú":{"ha":755,"x_min":20,"x_max":734,"o":"m 20 554 q 23 563 21 557 q 32 582 24 568 q 47 610 39 597 q 68 637 55 623 q 95 661 81 652 l 96 661 l 96 661 q 138 674 116 673 l 138 674 l 141 674 l 144 674 l 145 674 q 212 612 202 671 l 212 222 q 212 195 212 205 q 215 163 212 185 q 223 127 218 142 q 238 94 228 113 q 264 64 249 75 q 302 44 279 52 q 355 36 326 36 q 451 62 401 36 q 541 134 500 89 l 541 674 l 653 674 l 658 674 l 658 122 q 659 102 658 113 q 703 104 665 53 l 717 127 l 734 127 q 726 106 731 119 q 701 64 720 93 q 659 21 682 35 l 659 20 l 658 20 q 618 7 640 8 l 614 7 l 604 7 q 560 29 574 10 q 544 71 546 47 q 542 88 543 76 q 541 104 541 100 l 541 106 q 305 -7 436 -7 q 95 224 95 -7 l 95 580 q 51 576 89 629 l 37 554 l 20 554 m 282 756 l 382 998 l 530 998 l 292 749 l 282 756 z "},"û":{"ha":755,"x_min":20,"x_max":734,"o":"m 20 554 q 23 563 21 557 q 32 582 24 568 q 47 610 39 597 q 68 637 55 623 q 95 661 81 652 l 96 661 l 96 661 q 138 674 116 673 l 138 674 l 141 674 l 144 674 l 145 674 q 212 612 202 671 l 212 222 q 212 195 212 205 q 215 163 212 185 q 223 127 218 142 q 238 94 228 113 q 264 64 249 75 q 302 44 279 52 q 355 36 326 36 q 451 62 401 36 q 541 134 500 89 l 541 674 l 653 674 l 658 674 l 658 122 q 659 102 658 113 q 703 104 665 53 l 717 127 l 734 127 q 726 106 731 119 q 701 64 720 93 q 659 21 682 35 l 659 20 l 658 20 q 618 7 640 8 l 614 7 l 604 7 q 560 29 574 10 q 544 71 546 47 q 542 88 543 76 q 541 104 541 100 l 541 106 q 305 -7 436 -7 q 95 224 95 -7 l 95 580 q 51 576 89 629 l 37 554 l 20 554 m 161 756 l 373 998 l 382 998 l 591 756 l 583 749 l 377 888 l 170 749 l 161 756 z "},"ü":{"ha":755,"x_min":20,"x_max":734,"o":"m 20 554 q 23 563 21 557 q 32 582 24 568 q 47 610 39 597 q 68 637 55 623 q 95 661 81 652 l 96 661 l 96 661 q 138 674 116 673 l 138 674 l 141 674 l 144 674 l 145 674 q 212 612 202 671 l 212 222 q 212 195 212 205 q 215 163 212 185 q 223 127 218 142 q 238 94 228 113 q 264 64 249 75 q 302 44 279 52 q 355 36 326 36 q 451 62 401 36 q 541 134 500 89 l 541 674 l 653 674 l 658 674 l 658 122 q 659 102 658 113 q 703 104 665 53 l 717 127 l 734 127 q 726 106 731 119 q 701 64 720 93 q 659 21 682 35 l 659 20 l 658 20 q 618 7 640 8 l 614 7 l 604 7 q 560 29 574 10 q 544 71 546 47 q 542 88 543 76 q 541 104 541 100 l 541 106 q 305 -7 436 -7 q 95 224 95 -7 l 95 580 q 51 576 89 629 l 37 554 l 20 554 m 202 848 q 185 889 185 865 q 203 931 185 913 q 244 948 220 948 q 286 931 268 948 l 286 931 q 304 889 304 913 q 287 848 304 865 l 286 848 q 244 830 269 830 q 202 848 220 830 m 468 847 q 451 889 450 864 q 469 931 451 914 q 510 948 486 948 q 551 930 534 947 q 569 889 568 913 q 552 848 569 865 q 510 830 535 830 q 468 847 485 829 z "},"ý":{"ha":642,"x_min":5,"x_max":641,"o":"m 5 554 q 60 644 24 609 q 80 661 71 654 l 81 661 l 81 661 q 121 674 100 673 l 125 674 q 131 674 127 674 q 135 673 134 673 q 187 639 172 670 l 188 639 l 390 167 l 424 245 l 429 258 l 429 257 l 454 313 q 463 333 456 319 q 471 354 469 347 l 472 357 l 610 674 l 641 674 q 475 306 586 564 l 447 241 l 288 -142 q 180 -284 246 -242 q 24 -326 113 -326 l 26 -300 q 55 -242 28 -264 q 118 -225 83 -220 q 175 -223 149 -230 q 217 -202 201 -216 q 244 -175 233 -189 q 260 -151 256 -161 l 264 -140 l 305 -43 l 330 18 l 98 556 l 96 559 l 93 567 l 90 576 l 87 583 l 85 586 q 68 604 77 602 q 51 599 59 606 q 37 582 43 591 q 26 563 30 572 l 22 554 l 5 554 m 323 735 l 423 977 l 571 977 l 333 728 l 323 735 z "},"ÿ":{"ha":642,"x_min":5,"x_max":640,"o":"m 5 554 q 60 644 24 609 q 80 661 71 654 l 81 661 l 81 661 q 121 674 100 673 l 125 674 q 131 674 127 674 q 135 673 134 673 q 187 639 172 670 l 188 639 l 390 167 l 424 245 l 429 258 l 429 257 l 454 313 q 463 335 457 321 q 471 354 469 349 l 472 357 l 610 674 l 640 674 q 475 306 590 574 l 447 241 l 288 -142 q 180 -284 246 -242 q 24 -326 113 -326 l 26 -300 q 55 -242 28 -264 q 118 -225 83 -220 q 175 -223 149 -230 q 217 -202 201 -216 q 244 -175 233 -189 q 260 -151 256 -161 l 264 -140 l 305 -43 l 330 18 l 98 556 l 96 559 l 93 567 l 90 576 l 87 583 l 85 586 q 68 604 77 602 q 51 599 59 606 q 37 582 43 591 q 26 563 30 572 l 22 554 l 5 554 m 191 842 q 182 850 191 842 q 174 883 174 859 q 191 925 174 907 q 233 942 209 942 q 275 925 257 942 q 292 883 292 907 q 275 842 292 859 q 233 824 258 824 q 191 842 208 824 m 456 841 q 439 883 439 858 q 457 925 439 908 q 498 942 474 942 q 540 924 523 941 q 557 883 557 907 q 541 842 557 859 q 498 824 524 824 q 456 841 473 823 z "},"Œ":{"ha":1255,"x_min":33,"x_max":1247,"o":"m 33 441 q 165 777 33 656 q 528 897 298 897 l 1208 897 l 1223 820 l 1221 820 q 888 875 1059 875 l 820 875 l 820 480 l 1099 480 l 1099 458 l 820 458 l 820 26 l 890 26 q 1244 86 1083 26 l 1247 86 l 1223 4 l 507 4 q 259 54 365 4 q 93 202 153 103 q 33 441 33 302 m 171 447 q 266 140 171 256 q 518 24 361 24 q 694 35 648 24 l 694 867 q 507 878 646 878 q 259 765 347 878 q 171 447 171 652 z "},"œ":{"ha":1293,"x_min":30,"x_max":1280,"o":"m 35 340 q 144 584 44 494 q 389 667 244 674 q 555 616 484 662 q 663 492 626 570 q 791 622 711 572 q 953 672 870 672 q 1123 613 1064 672 q 1127 609 1124 612 q 1136 599 1129 607 q 1148 582 1143 591 q 1161 557 1154 572 q 1171 526 1168 542 q 1176 488 1174 510 q 1175 443 1179 466 l 1114 443 l 734 443 q 726 352 726 410 q 792 137 726 210 q 983 64 857 64 q 1149 117 1080 64 q 1271 272 1219 170 l 1280 267 q 1106 50 1210 123 q 920 -12 1018 -12 q 755 29 826 -12 q 646 143 684 71 q 520 22 600 64 q 341 -14 439 -19 q 177 36 248 -8 q 68 159 106 79 q 35 340 30 238 m 161 341 q 205 102 153 195 q 349 3 258 9 q 502 83 441 -1 q 569 311 562 167 q 525 551 577 458 q 381 650 473 645 q 229 571 289 655 q 161 341 169 487 m 739 464 l 1071 464 q 1066 567 1080 527 q 1027 628 1053 608 l 1025 630 q 1004 643 1017 637 l 996 646 q 956 652 979 652 q 829 607 878 652 q 739 464 780 563 m 1157 464 l 1158 464 l 1157 465 l 1157 464 z "},"Ÿ":{"ha":684,"x_min":-9,"x_max":694,"o":"m -9 897 l 134 897 l 397 430 l 461 543 l 663 898 l 694 897 q 483 532 594 732 l 408 401 l 408 3 l 283 3 l 283 386 l -9 897 z "}," ":{"ha":623,"x_min":0,"x_max":0,"o":""}," ":{"ha":1245,"x_min":0,"x_max":0,"o":""}," ":{"ha":623,"x_min":0,"x_max":0,"o":""}," ":{"ha":1245,"x_min":0,"x_max":0,"o":""}," ":{"ha":415,"x_min":0,"x_max":0,"o":""}," ":{"ha":311,"x_min":0,"x_max":0,"o":""}," ":{"ha":208,"x_min":0,"x_max":0,"o":""}," ":{"ha":208,"x_min":0,"x_max":0,"o":""}," ":{"ha":155,"x_min":0,"x_max":0,"o":""}," ":{"ha":249,"x_min":0,"x_max":0,"o":""}," ":{"ha":69,"x_min":0,"x_max":0,"o":""},"‐":{"ha":312,"x_min":17,"x_max":296,"o":"m 17 323 l 17 378 l 296 378 l 296 323 l 17 323 z "},"‑":{"ha":312,"x_min":17,"x_max":296,"o":"m 17 323 l 17 378 l 296 378 l 296 323 l 17 323 z "},"‒":{"ha":312,"x_min":17,"x_max":296,"o":"m 17 323 l 17 378 l 296 378 l 296 323 l 17 323 z "},"–":{"ha":728,"x_min":17,"x_max":711,"o":"m 17 323 l 17 378 l 711 378 l 711 323 l 17 323 z "},"—":{"ha":1422,"x_min":17,"x_max":1406,"o":"m 17 323 l 17 378 l 1406 378 l 1406 323 l 17 323 z "},"’":{"ha":220,"x_min":32,"x_max":186,"o":"m 32 600 q 104 711 104 644 q 57 806 104 760 q 40 842 41 821 q 52 880 38 863 q 88 900 66 898 q 127 889 110 903 q 186 774 186 845 q 144 670 186 719 q 38 591 102 622 l 32 600 z "},"“":{"ha":433,"x_min":35,"x_max":408,"o":"m 35 732 q 77 836 35 787 q 181 916 119 885 l 187 907 q 116 795 116 863 q 163 701 116 747 q 180 665 178 686 q 168 627 182 644 l 168 626 q 131 607 153 609 q 92 618 109 604 q 35 732 35 662 m 256 732 q 298 836 256 787 q 402 916 340 885 l 408 907 q 337 795 337 863 q 384 701 337 747 q 401 665 399 686 q 389 627 403 644 l 389 626 q 352 607 374 609 q 313 618 330 604 q 256 732 256 662 z "},"”":{"ha":441,"x_min":32,"x_max":407,"o":"m 32 600 q 104 711 104 644 q 57 806 104 760 q 40 842 41 821 q 52 880 38 863 q 88 900 66 898 q 127 889 110 903 q 186 774 186 845 q 144 670 186 719 q 38 591 102 622 l 32 600 m 253 600 q 326 711 326 644 q 278 806 326 760 q 261 842 262 821 q 273 880 259 863 q 309 900 287 898 q 349 889 331 903 q 407 774 407 845 q 365 670 407 719 q 259 591 323 622 l 253 600 z "}," ":{"ha":249,"x_min":0,"x_max":0,"o":""}," ":{"ha":311,"x_min":0,"x_max":0,"o":""},"€":{"ha":818,"x_min":29,"x_max":789,"o":"m 29 353 l 29 375 l 106 375 q 104 427 104 401 q 108 495 104 467 l 29 495 l 29 517 l 111 517 q 246 794 136 692 q 517 896 357 896 q 663 866 595 896 q 782 789 730 836 l 774 781 q 702 748 743 752 q 625 766 661 744 q 573 827 589 787 q 511 876 554 876 q 326 777 398 876 q 241 517 253 677 l 554 517 l 547 495 l 239 495 q 238 457 238 483 q 241 375 238 407 l 509 375 l 501 353 l 245 353 q 346 112 267 199 q 541 26 425 26 q 667 52 605 26 q 776 136 728 79 l 789 124 q 660 12 736 52 q 494 -28 585 -28 q 236 76 342 -28 q 108 353 129 179 l 29 353 z "},"◼":{"ha":667,"x_min":0,"x_max":667,"o":"m 0 0 l 0 667 l 667 667 l 667 0 l 0 0 z "},"ﬂ":{"ha":665,"x_min":14,"x_max":643,"o":"m 14 613 l 14 640 l 100 640 q 138 855 82 758 q 308 997 195 951 q 568 994 448 1052 l 568 994 l 568 993 l 568 533 l 567 535 l 567 109 q 568 87 567 98 q 612 90 574 39 l 626 113 l 643 113 q 635 92 640 105 q 610 49 629 78 q 568 7 591 20 q 528 -6 549 -5 q 525 -6 527 -6 q 523 -7 524 -7 q 518 -6 521 -7 q 513 -6 515 -6 q 453 57 461 -1 q 452 75 452 64 l 452 882 q 452 904 452 886 q 451 932 452 922 q 444 938 447 935 q 387 975 414 963 l 387 975 q 308 978 345 993 q 205 854 228 946 q 225 640 183 763 l 431 640 l 414 613 l 225 613 l 225 0 l 109 0 l 109 613 l 14 613 z "}}}
